STARTFONT 2.1
COMMENT
COMMENT Converted from OpenType font "VeraMono.ttf" by "otf2bdf 3.0".
COMMENT
FONT -FreeType-Bitstream Vera Sans Mono-Medium-R-Normal--42-300-100-100-P-185-ISO10646-1
SIZE 30 100 100
FONTBOUNDINGBOX 25 50 0 -10
STARTPROPERTIES 19
FOUNDRY "FreeType"
FAMILY_NAME "Bitstream Vera Sans Mono"
WEIGHT_NAME "Medium"
SLANT "R"
SETWIDTH_NAME "Normal"
ADD_STYLE_NAME ""
PIXEL_SIZE 42
POINT_SIZE 300
RESOLUTION_X 100
RESOLUTION_Y 100
SPACING "P"
AVERAGE_WIDTH 185
CHARSET_REGISTRY "ISO10646"
CHARSET_ENCODING "1"
FONT_ASCENT 38
FONT_DESCENT 9
COPYRIGHT "Copyright (c) 2003 by Bitstream, Inc. All Rights Reserved."
_OTF_FONTFILE "VeraMono.ttf"
_OTF_PSNAME "BitstreamVeraSansMono-Roman"
ENDPROPERTIES
CHARS 256
STARTCHAR 0020
ENCODING 32
SWIDTH 600 0
DWIDTH 25 0
BBX 0 0 0 0
BITMAP
ENDCHAR
STARTCHAR 0021
ENCODING 33
SWIDTH 600 0
DWIDTH 25 0
BBX 4 31 11 0
BITMAP
F0
F0
F0
F0
F0
F0
F0
F0
F0
F0
F0
F0
F0
F0
F0
F0
F0
F0
E0
E0
E0
00
00
00
00
00
F0
F0
F0
F0
F0
ENDCHAR
STARTCHAR 0022
ENCODING 34
SWIDTH 600 0
DWIDTH 25 0
BBX 11 11 7 20
BITMAP
F0E0
F0E0
F0E0
F0E0
F0E0
F0E0
F0E0
F0E0
F0E0
F0E0
F0E0
ENDCHAR
STARTCHAR 0023
ENCODING 35
SWIDTH 600 0
DWIDTH 25 0
BBX 25 30 0 0
BITMAP
001C1C00
003C1C00
00383C00
00383C00
00383800
00783800
00703800
00707800
00707000
3FFFFF80
3FFFFF80
3FFFFF80
00E0E000
01E0E000
01E0E000
01C1E000
01C1C000
03C1C000
03C1C000
FFFFFE00
FFFFFE00
FFFFFE00
07038000
07078000
07070000
0F070000
0E0F0000
0E0E0000
0E0E0000
1E0E0000
ENDCHAR
STARTCHAR 0024
ENCODING 36
SWIDTH 600 0
DWIDTH 25 0
BBX 19 38 4 -6
BITMAP
00C000
00C000
00C000
00C000
00C000
07FE00
1FFF80
3FFF80
7CC780
F8C080
F0C000
F0C000
F0C000
F0C000
F0C000
7CC000
7FC000
3FFC00
0FFF00
00FF80
00CFC0
00C3C0
00C1E0
00C1E0
00C1E0
00C1E0
80C1E0
C0C3C0
F8C7C0
FFFF80
7FFE00
07F800
00C000
00C000
00C000
00C000
00C000
00C000
ENDCHAR
STARTCHAR 0025
ENCODING 37
SWIDTH 600 0
DWIDTH 25 0
BBX 24 29 1 0
BITMAP
0F8000
3FC000
7FE000
F0F000
E07000
E03800
C03800
E03800
E07000
F0F004
7FE01E
3FC0FC
0F83E0
001F80
007C00
03F000
0F83F0
7E07F8
780FFC
401E1E
001C0E
001807
003807
001807
001C0E
001E1E
000FFC
0007F8
0003F0
ENDCHAR
STARTCHAR 0026
ENCODING 38
SWIDTH 600 0
DWIDTH 25 0
BBX 24 32 1 0
BITMAP
00FE00
03FF80
07FF80
078380
0F0080
0F0000
0E0000
0F0000
0F0000
0F0000
078000
078000
03C000
07E000
0FE000
1EF000
3C780F
787C0F
783C0F
701E0E
F01F0E
F00F8E
F0078E
F003DE
F003FC
7801FC
7800F8
3C00F8
3F03FC
1FFFFC
07FF1E
01FC1F
ENDCHAR
STARTCHAR 0027
ENCODING 39
SWIDTH 600 0
DWIDTH 25 0
BBX 3 11 11 20
BITMAP
E0
E0
E0
E0
E0
E0
E0
E0
E0
E0
E0
ENDCHAR
STARTCHAR 0028
ENCODING 40
SWIDTH 600 0
DWIDTH 25 0
BBX 9 37 9 -5
BITMAP
0380
0700
0F00
0E00
1E00
1C00
3C00
3C00
3800
7800
7800
7800
F000
F000
F000
F000
F000
F000
F000
F000
F000
F000
F000
F000
F000
7800
7800
7800
3800
3C00
3C00
1C00
1E00
0E00
0F00
0700
0380
ENDCHAR
STARTCHAR 0029
ENCODING 41
SWIDTH 600 0
DWIDTH 25 0
BBX 10 37 7 -5
BITMAP
F000
7000
7800
3800
3C00
1C00
1E00
0E00
0F00
0F00
0700
0780
0780
0780
0780
0780
0780
03C0
03C0
03C0
0780
0780
0780
0780
0780
0780
0F00
0F00
0F00
0E00
1E00
1C00
3C00
3C00
7800
7000
F000
ENDCHAR
STARTCHAR 002A
ENCODING 42
SWIDTH 600 0
DWIDTH 25 0
BBX 18 20 4 12
BITMAP
01C000
01C000
01C000
01C000
81C080
E1C3C0
F9C780
3DDE00
0FF800
03E000
03E000
0FF800
3DDE00
F9C780
E1C3C0
81C080
01C000
01C000
01C000
01C000
ENDCHAR
STARTCHAR 002B
ENCODING 43
SWIDTH 600 0
DWIDTH 25 0
BBX 21 21 2 2
BITMAP
007000
007000
007000
007000
007000
007000
007000
007000
007000
FFFFF8
FFFFF8
FFFFF8
007000
007000
007000
007000
007000
007000
007000
007000
007000
ENDCHAR
STARTCHAR 002C
ENCODING 44
SWIDTH 600 0
DWIDTH 25 0
BBX 7 12 8 -6
BITMAP
3E
3E
3E
3E
3E
3E
3C
7C
78
78
70
F0
ENDCHAR
STARTCHAR 002D
ENCODING 45
SWIDTH 600 0
DWIDTH 25 0
BBX 11 3 7 10
BITMAP
FFE0
FFE0
FFE0
ENDCHAR
STARTCHAR 002E
ENCODING 46
SWIDTH 600 0
DWIDTH 25 0
BBX 5 6 10 0
BITMAP
F8
F8
F8
F8
F8
F8
ENDCHAR
STARTCHAR 002F
ENCODING 47
SWIDTH 600 0
DWIDTH 25 0
BBX 20 35 2 -4
BITMAP
0000F0
0000E0
0001E0
0001E0
0003C0
0003C0
000780
000780
000F00
000F00
001E00
001E00
003C00
003C00
003800
007800
007800
00F000
00F000
01E000
01E000
03C000
03C000
078000
078000
0F0000
0F0000
0E0000
1E0000
1E0000
3C0000
3C0000
780000
780000
F00000
ENDCHAR
STARTCHAR 0030
ENCODING 48
SWIDTH 600 0
DWIDTH 25 0
BBX 20 32 3 0
BITMAP
01F800
07FE00
1FFF00
1F0F80
3C0780
7C03C0
7803C0
7803E0
F801E0
F001E0
F001E0
F001E0
F001E0
F001E0
F001F0
F0E1F0
F1F1F0
F1F1F0
F0E1E0
F001E0
F001E0
F001E0
F001E0
F801E0
7803E0
7803C0
7C03C0
3C0780
1F0F80
1FFF00
07FE00
03F800
ENDCHAR
STARTCHAR 0031
ENCODING 49
SWIDTH 600 0
DWIDTH 25 0
BBX 17 31 5 0
BITMAP
07E000
3FE000
FFE000
F9E000
C1E000
01E000
01E000
01E000
01E000
01E000
01E000
01E000
01E000
01E000
01E000
01E000
01E000
01E000
01E000
01E000
01E000
01E000
01E000
01E000
01E000
01E000
01E000
01E000
7FFF80
7FFF80
7FFF80
ENDCHAR
STARTCHAR 0032
ENCODING 50
SWIDTH 600 0
DWIDTH 25 0
BBX 19 32 3 0
BITMAP
07F000
3FFC00
FFFF00
F81F80
E00780
8007C0
0003C0
0003C0
0003C0
0003E0
0003C0
0003C0
0007C0
000780
000F80
000F00
001F00
003E00
007C00
00F800
00F000
01E000
03C000
07C000
0F8000
1F0000
3E0000
7C0000
780000
FFFFE0
FFFFE0
FFFFE0
ENDCHAR
STARTCHAR 0033
ENCODING 51
SWIDTH 600 0
DWIDTH 25 0
BBX 19 32 3 0
BITMAP
1FF000
7FFE00
7FFF00
781F80
400780
0003C0
0003C0
0003C0
0003C0
0003C0
0003C0
0003C0
000780
001F80
07FE00
07F800
07FE00
001F80
0007C0
0003C0
0001E0
0001E0
0001E0
0001E0
0001E0
0001E0
8003E0
C007C0
F81F80
FFFF00
7FFE00
0FF000
ENDCHAR
STARTCHAR 0034
ENCODING 52
SWIDTH 600 0
DWIDTH 25 0
BBX 21 31 2 0
BITMAP
000F80
001F80
001F80
003F80
007F80
007780
00E780
00E780
01C780
03C780
038780
078780
0F0780
0E0780
1E0780
3C0780
3C0780
780780
F00780
F00780
FFFFF8
FFFFF8
FFFFF8
000780
000780
000780
000780
000780
000780
000780
000780
ENDCHAR
STARTCHAR 0035
ENCODING 53
SWIDTH 600 0
DWIDTH 25 0
BBX 19 31 3 0
BITMAP
7FFF80
7FFF80
7FFF80
780000
780000
780000
780000
780000
780000
780000
780000
7FF000
7FFE00
7FFF00
701F80
400FC0
0007C0
0003C0
0003E0
0001E0
0001E0
0001E0
0001E0
0003E0
0003C0
0007C0
800780
F01F80
FFFF00
FFFC00
3FF000
ENDCHAR
STARTCHAR 0036
ENCODING 54
SWIDTH 600 0
DWIDTH 25 0
BBX 20 32 3 0
BITMAP
00FF00
07FF80
0FFF80
1F8380
3E0080
3C0000
780000
780000
700000
F00000
F1FC00
F3FF00
F7FF80
FF0FC0
FC03C0
FC03E0
F801E0
F801E0
F001E0
F001E0
F001F0
F001F0
F001F0
F001E0
7801E0
7801E0
7C03E0
3C03C0
3F0FC0
1FFF80
0FFE00
01FC00
ENDCHAR
STARTCHAR 0037
ENCODING 55
SWIDTH 600 0
DWIDTH 25 0
BBX 19 31 3 0
BITMAP
FFFFE0
FFFFE0
FFFFE0
0003E0
0003C0
0003C0
000780
000780
000F80
000F00
000F00
001F00
001E00
003E00
003C00
003C00
007C00
007800
007800
00F800
00F000
01F000
01E000
01E000
03E000
03C000
03C000
07C000
078000
0F8000
0F0000
ENDCHAR
STARTCHAR 0038
ENCODING 56
SWIDTH 600 0
DWIDTH 25 0
BBX 20 32 3 0
BITMAP
03F800
0FFE00
1FFF80
3E0FC0
7C03C0
7803C0
7801E0
F801E0
F801E0
F801E0
7801E0
7803C0
3C03C0
3E0F80
0FFF00
03FC00
1FFF00
3E0F80
7803C0
F801E0
F001E0
F001E0
F001F0
F001F0
F001F0
F001E0
F801E0
7803E0
7E0FC0
3FFF80
1FFF00
03F800
ENDCHAR
STARTCHAR 0039
ENCODING 57
SWIDTH 600 0
DWIDTH 25 0
BBX 19 32 3 0
BITMAP
03F800
0FFE00
3FFF00
3E1F80
7C0780
F803C0
F003C0
F003C0
F001E0
F001E0
F001E0
F001E0
F001E0
F001E0
F003E0
F003E0
F803E0
7807E0
3E1EE0
3FFEE0
0FFDE0
07F1E0
0001E0
0001E0
0003C0
0003C0
000780
200F80
381F00
3FFE00
3FFC00
1FE000
ENDCHAR
STARTCHAR 003A
ENCODING 58
SWIDTH 600 0
DWIDTH 25 0
BBX 5 22 10 0
BITMAP
F8
F8
F8
F8
F8
F8
00
00
00
00
00
00
00
00
00
00
F8
F8
F8
F8
F8
F8
ENDCHAR
STARTCHAR 003B
ENCODING 59
SWIDTH 600 0
DWIDTH 25 0
BBX 7 28 8 -6
BITMAP
3E
3E
3E
3E
3E
3E
00
00
00
00
00
00
00
00
00
00
3E
3E
3E
3E
3E
3E
3C
7C
78
78
70
F0
ENDCHAR
STARTCHAR 003C
ENCODING 60
SWIDTH 600 0
DWIDTH 25 0
BBX 21 21 2 2
BITMAP
000008
000038
0001F8
0007F8
003FF0
00FF80
07FE00
1FF000
FF8000
FE0000
F00000
FE0000
FF8000
1FF000
07FE00
00FF80
003FF0
0007F8
0001F8
000038
000008
ENDCHAR
STARTCHAR 003D
ENCODING 61
SWIDTH 600 0
DWIDTH 25 0
BBX 21 11 2 8
BITMAP
FFFFF8
FFFFF8
FFFFF8
000000
000000
000000
000000
000000
FFFFF8
FFFFF8
FFFFF8
ENDCHAR
STARTCHAR 003E
ENCODING 62
SWIDTH 600 0
DWIDTH 25 0
BBX 21 21 2 2
BITMAP
800000
F00000
FC0000
FF0000
3FE000
0FF800
01FF00
007FC0
000FF8
0001F8
000078
0001F8
000FF8
007FC0
01FF00
0FF800
3FE000
FF0000
FC0000
F00000
800000
ENDCHAR
STARTCHAR 003F
ENCODING 63
SWIDTH 600 0
DWIDTH 25 0
BBX 16 32 5 0
BITMAP
0FE0
7FF8
FFFE
F83E
C01F
800F
000F
000F
000F
000F
001F
003E
007C
00F8
01F0
01E0
03C0
03C0
0780
0780
0780
0780
0780
0780
0000
0000
0000
0780
0780
0780
0780
0780
ENDCHAR
STARTCHAR 0040
ENCODING 64
SWIDTH 600 0
DWIDTH 25 0
BBX 23 36 1 -7
BITMAP
003F80
01FFE0
03FFF0
07C0F8
0F003C
1E001C
3C001E
38000E
78000E
700FCE
F01FEE
E03FFE
E0783E
E0F01E
E0E00E
E0E00E
E0E00E
E1E00E
E1E00E
E0E00E
E0E00E
E0E00E
E0F01E
E0783E
F03FFE
701FEE
700FCE
780000
3C0000
1E0000
1F0000
0F8000
07E030
03FFF0
00FFF0
001FE0
ENDCHAR
STARTCHAR 0041
ENCODING 65
SWIDTH 600 0
DWIDTH 25 0
BBX 23 31 1 0
BITMAP
007C00
007E00
00FE00
00FE00
00EF00
01EF00
01EF00
01E700
01C780
03C780
03C780
03C3C0
0783C0
0783C0
0781E0
0F81E0
0F01E0
0F01E0
0F00F0
1E00F0
1FFFF0
1FFFF8
3FFFF8
3C0078
3C007C
7C003C
78003C
78003C
78001E
F0001E
F0001E
ENDCHAR
STARTCHAR 0042
ENCODING 66
SWIDTH 600 0
DWIDTH 25 0
BBX 20 31 3 0
BITMAP
FFFC00
FFFF00
FFFF80
F807C0
F803E0
F801E0
F801E0
F801E0
F801E0
F801E0
F801E0
F803C0
F80FC0
FFFF80
FFFC00
FFFF80
F807C0
F801E0
F801E0
F800F0
F800F0
F800F0
F800F0
F800F0
F800F0
F801F0
F801E0
F807E0
FFFFC0
FFFF80
FFFC00
ENDCHAR
STARTCHAR 0043
ENCODING 67
SWIDTH 600 0
DWIDTH 25 0
BBX 19 32 3 0
BITMAP
007F00
03FFC0
07FFE0
0F81E0
1F0060
3E0020
3C0000
7C0000
780000
780000
F80000
F80000
F00000
F00000
F00000
F00000
F00000
F00000
F00000
F00000
F80000
F80000
780000
780000
7C0000
3C0000
3E0020
1F0060
0F81E0
07FFE0
03FFC0
00FF00
ENDCHAR
STARTCHAR 0044
ENCODING 68
SWIDTH 600 0
DWIDTH 25 0
BBX 20 31 3 0
BITMAP
FFE000
FFF800
FFFE00
F03F00
F00F80
F007C0
F003C0
F003C0
F001E0
F001E0
F001E0
F001E0
F001F0
F001F0
F001F0
F001F0
F001F0
F001F0
F001F0
F001E0
F001E0
F001E0
F001E0
F003C0
F003C0
F007C0
F00F80
F03F00
FFFE00
FFF800
FFE000
ENDCHAR
STARTCHAR 0045
ENCODING 69
SWIDTH 600 0
DWIDTH 25 0
BBX 19 31 4 0
BITMAP
FFFFC0
FFFFC0
FFFFC0
F00000
F00000
F00000
F00000
F00000
F00000
F00000
F00000
F00000
F00000
FFFFC0
FFFFC0
FFFFC0
F00000
F00000
F00000
F00000
F00000
F00000
F00000
F00000
F00000
F00000
F00000
F00000
FFFFE0
FFFFE0
FFFFE0
ENDCHAR
STARTCHAR 0046
ENCODING 70
SWIDTH 600 0
DWIDTH 25 0
BBX 18 31 5 0
BITMAP
FFFFC0
FFFFC0
FFFFC0
F00000
F00000
F00000
F00000
F00000
F00000
F00000
F00000
F00000
F00000
FFFF80
FFFF80
FFFF80
F00000
F00000
F00000
F00000
F00000
F00000
F00000
F00000
F00000
F00000
F00000
F00000
F00000
F00000
F00000
ENDCHAR
STARTCHAR 0047
ENCODING 71
SWIDTH 600 0
DWIDTH 25 0
BBX 21 32 2 0
BITMAP
007F00
03FFE0
07FFF0
0FC1F0
1F0030
3E0010
3C0000
7C0000
780000
780000
780000
F80000
F80000
F80000
F00000
F00000
F00FF8
F00FF8
F00FF8
F80078
F80078
780078
780078
780078
7C0078
3C0078
3E0078
1F0078
0FC1F8
07FFF0
03FFE0
007F00
ENDCHAR
STARTCHAR 0048
ENCODING 72
SWIDTH 600 0
DWIDTH 25 0
BBX 19 31 3 0
BITMAP
F001E0
F001E0
F001E0
F001E0
F001E0
F001E0
F001E0
F001E0
F001E0
F001E0
F001E0
F001E0
F001E0
FFFFE0
FFFFE0
FFFFE0
F001E0
F001E0
F001E0
F001E0
F001E0
F001E0
F001E0
F001E0
F001E0
F001E0
F001E0
F001E0
F001E0
F001E0
F001E0
ENDCHAR
STARTCHAR 0049
ENCODING 73
SWIDTH 600 0
DWIDTH 25 0
BBX 17 31 4 0
BITMAP
FFFF80
FFFF80
FFFF80
01E000
01E000
01E000
01E000
01E000
01E000
01E000
01E000
01E000
01E000
01E000
01E000
01E000
01E000
01E000
01E000
01E000
01E000
01E000
01E000
01E000
01E000
01E000
01E000
01E000
FFFF80
FFFF80
FFFF80
ENDCHAR
STARTCHAR 004A
ENCODING 74
SWIDTH 600 0
DWIDTH 25 0
BBX 18 31 2 0
BITMAP
03FFC0
03FFC0
03FFC0
0007C0
0007C0
0007C0
0007C0
0007C0
0007C0
0007C0
0007C0
0007C0
0007C0
0007C0
0007C0
0007C0
0007C0
0007C0
0007C0
0007C0
0007C0
0007C0
0007C0
000780
800780
C00780
E00F80
F81F00
FFFE00
7FFC00
0FF000
ENDCHAR
STARTCHAR 004B
ENCODING 75
SWIDTH 600 0
DWIDTH 25 0
BBX 22 31 3 0
BITMAP
F000F8
F001F0
F001E0
F003E0
F007C0
F00F80
F01F00
F03E00
F07C00
F0F800
F1F000
F3E000
F7C000
FFC000
FFE000
FFF000
FCF000
F8F800
F07C00
F03C00
F03E00
F01F00
F00F00
F00F80
F007C0
F003C0
F003E0
F001F0
F000F0
F000F8
F0007C
ENDCHAR
STARTCHAR 004C
ENCODING 76
SWIDTH 600 0
DWIDTH 25 0
BBX 19 31 4 0
BITMAP
F80000
F80000
F80000
F80000
F80000
F80000
F80000
F80000
F80000
F80000
F80000
F80000
F80000
F80000
F80000
F80000
F80000
F80000
F80000
F80000
F80000
F80000
F80000
F80000
F80000
F80000
F80000
F80000
FFFFE0
FFFFE0
FFFFE0
ENDCHAR
STARTCHAR 004D
ENCODING 77
SWIDTH 600 0
DWIDTH 25 0
BBX 21 31 2 0
BITMAP
F800F8
FC01F8
FC01F8
FC01F8
FE03B8
FE03B8
F603B8
F70738
F70738
F30738
F38E38
F38E38
F18E38
F1DC38
F1DC38
F0DC38
F0F838
F0F838
F07838
F07038
F00038
F00038
F00038
F00038
F00038
F00038
F00038
F00038
F00038
F00038
F00038
ENDCHAR
STARTCHAR 004E
ENCODING 78
SWIDTH 600 0
DWIDTH 25 0
BBX 19 31 3 0
BITMAP
F801E0
FC01E0
FC01E0
FE01E0
FE01E0
FE01E0
FF01E0
F701E0
F781E0
F781E0
F381E0
F3C1E0
F1C1E0
F1E1E0
F1E1E0
F0E1E0
F0F1E0
F071E0
F079E0
F039E0
F039E0
F03DE0
F01DE0
F01FE0
F00FE0
F00FE0
F00FE0
F007E0
F007E0
F003E0
F003E0
ENDCHAR
STARTCHAR 004F
ENCODING 79
SWIDTH 600 0
DWIDTH 25 0
BBX 21 32 2 0
BITMAP
01FC00
07FF00
0FFF80
1F07C0
1E03E0
3C01E0
3C01F0
7C00F0
7800F0
7800F0
7800F8
7800F8
7800F8
F800F8
F80078
F80078
F80078
F80078
F800F8
7800F8
7800F8
7800F8
7800F0
7800F0
7C00F0
3C01F0
3C01E0
1E03E0
1F07C0
0FFF80
07FF00
01FC00
ENDCHAR
STARTCHAR 0050
ENCODING 80
SWIDTH 600 0
DWIDTH 25 0
BBX 19 31 4 0
BITMAP
FFF800
FFFF00
FFFF80
F00FC0
F007C0
F003E0
F001E0
F001E0
F001E0
F001E0
F001E0
F001E0
F003E0
F007C0
F00FC0
FFFF80
FFFF00
FFF800
F00000
F00000
F00000
F00000
F00000
F00000
F00000
F00000
F00000
F00000
F00000
F00000
F00000
ENDCHAR
STARTCHAR 0051
ENCODING 81
SWIDTH 600 0
DWIDTH 25 0
BBX 21 38 2 -6
BITMAP
01FC00
07FF00
0FFF80
1F07C0
1E03E0
3C01E0
3C01F0
7C00F0
7800F0
7800F0
7800F8
7800F8
7800F8
F800F8
F80078
F80078
F80078
F80078
F800F8
7800F8
7800F8
7800F8
7800F0
7800F0
7C00F0
3C01F0
3C01E0
1E03E0
1F07C0
0FFF80
07FF00
01FF00
000F80
000780
0007C0
0003E0
0001C0
000080
ENDCHAR
STARTCHAR 0052
ENCODING 82
SWIDTH 600 0
DWIDTH 25 0
BBX 22 31 3 0
BITMAP
FFF800
FFFE00
FFFF00
F01F80
F007C0
F003C0
F003E0
F003E0
F003E0
F003E0
F003E0
F003E0
F003C0
F007C0
F00F80
FFFF00
FFF800
FFFC00
F01F00
F00F00
F00780
F007C0
F003C0
F003E0
F001E0
F001F0
F000F0
F000F8
F00078
F0007C
F0003C
ENDCHAR
STARTCHAR 0053
ENCODING 83
SWIDTH 600 0
DWIDTH 25 0
BBX 20 32 3 0
BITMAP
03FC00
0FFF80
1FFFC0
3E07C0
7801C0
780040
F00000
F00000
F00000
F00000
F00000
F80000
FC0000
7F8000
3FF800
1FFE00
07FF80
00FFC0
000FC0
0003E0
0001E0
0001E0
0001E0
0000F0
0001E0
0001E0
8001E0
E003E0
F80FC0
FFFF80
7FFF00
07F800
ENDCHAR
STARTCHAR 0054
ENCODING 84
SWIDTH 600 0
DWIDTH 25 0
BBX 23 31 1 0
BITMAP
FFFFFE
FFFFFE
FFFFFE
003C00
003C00
003C00
003C00
003C00
003C00
003C00
003C00
003C00
003C00
003C00
003C00
003C00
003C00
003C00
003C00
003C00
003C00
003C00
003C00
003C00
003C00
003C00
003C00
003C00
003C00
003C00
003C00
ENDCHAR
STARTCHAR 0055
ENCODING 85
SWIDTH 600 0
DWIDTH 25 0
BBX 19 31 3 0
BITMAP
F001E0
F001E0
F001E0
F001E0
F001E0
F001E0
F001E0
F001E0
F001E0
F001E0
F001E0
F001E0
F001E0
F001E0
F001E0
F001E0
F001E0
F001E0
F001E0
F001E0
F001E0
F001E0
F001E0
F001E0
F001E0
7801E0
7803C0
3E0FC0
3FFF80
0FFE00
03F800
ENDCHAR
STARTCHAR 0056
ENCODING 86
SWIDTH 600 0
DWIDTH 25 0
BBX 23 31 1 0
BITMAP
F8001E
78003E
78003C
78003C
7C003C
3C007C
3C0078
3C0078
1E0078
1E00F0
1E00F0
1E00F0
0F00F0
0F01E0
0F01E0
0781E0
0783C0
0783C0
0383C0
03C3C0
03C780
03C780
01C780
01E700
01EF00
00EF00
00EE00
00FE00
00FE00
007E00
007C00
ENDCHAR
STARTCHAR 0057
ENCODING 87
SWIDTH 600 0
DWIDTH 25 0
BBX 25 31 0 0
BITMAP
F0000780
F0000780
F0000780
70000780
78000780
78000700
78000F00
78000F00
783E0F00
783E0F00
383E0F00
383F0F00
3C3F0E00
3C770E00
3C770E00
3C771E00
3C739E00
1CE39E00
1CE39E00
1CE39C00
1CE39C00
1EE1DC00
1FC1DC00
1FC1FC00
0FC1FC00
0FC0FC00
0F80F800
0F80F800
0F80F800
0F80F800
0F807800
ENDCHAR
STARTCHAR 0058
ENCODING 88
SWIDTH 600 0
DWIDTH 25 0
BBX 24 31 1 0
BITMAP
7C003E
3C003C
3E007C
1E0078
0F00F0
0F00F0
0781E0
07C3E0
03C3C0
01E780
01E780
00FF00
00FE00
007E00
003C00
007E00
00FE00
00FF00
01EF00
01E780
03C3C0
07C3C0
0781E0
0F01E0
1F00F0
1E00F8
3E0078
3C007C
78003C
F8001E
F0001F
ENDCHAR
STARTCHAR 0059
ENCODING 89
SWIDTH 600 0
DWIDTH 25 0
BBX 23 31 1 0
BITMAP
F0001E
78003E
7C003C
3C007C
3E0078
1E00F0
1F00F0
0F01E0
0783E0
0783C0
03C7C0
03C780
01EF00
01FF00
00FE00
007E00
007C00
003C00
003C00
003C00
003C00
003C00
003C00
003C00
003C00
003C00
003C00
003C00
003C00
003C00
003C00
ENDCHAR
STARTCHAR 005A
ENCODING 90
SWIDTH 600 0
DWIDTH 25 0
BBX 21 31 3 0
BITMAP
7FFFF8
7FFFF8
7FFFF8
0001F0
0001F0
0003E0
0003C0
0007C0
000F80
000F00
001F00
003E00
003E00
007C00
007800
00F800
01F000
01E000
03E000
07C000
078000
0F8000
1F0000
1E0000
3E0000
3C0000
7C0000
F80000
FFFFF8
FFFFF8
FFFFF8
ENDCHAR
STARTCHAR 005B
ENCODING 91
SWIDTH 600 0
DWIDTH 25 0
BBX 9 37 9 -5
BITMAP
FF80
FF80
FF80
F000
F000
F000
F000
F000
F000
F000
F000
F000
F000
F000
F000
F000
F000
F000
F000
F000
F000
F000
F000
F000
F000
F000
F000
F000
F000
F000
F000
F000
F000
F000
FF80
FF80
FF80
ENDCHAR
STARTCHAR 005C
ENCODING 92
SWIDTH 600 0
DWIDTH 25 0
BBX 20 35 2 -4
BITMAP
F00000
780000
780000
3C0000
3C0000
1E0000
1E0000
0E0000
0F0000
0F0000
078000
078000
03C000
03C000
01E000
01E000
00F000
00F000
007800
007800
003800
003C00
003C00
001E00
001E00
000F00
000F00
000780
000780
0003C0
0003C0
0001E0
0001E0
0000E0
0000F0
ENDCHAR
STARTCHAR 005D
ENCODING 93
SWIDTH 600 0
DWIDTH 25 0
BBX 9 37 7 -5
BITMAP
FF80
FF80
FF80
0780
0780
0780
0780
0780
0780
0780
0780
0780
0780
0780
0780
0780
0780
0780
0780
0780
0780
0780
0780
0780
0780
0780
0780
0780
0780
0780
0780
0780
0780
0780
FF80
FF80
FF80
ENDCHAR
STARTCHAR 005E
ENCODING 94
SWIDTH 600 0
DWIDTH 25 0
BBX 21 11 2 20
BITMAP
00F800
00FC00
01FE00
03DE00
078F00
0F0780
1E03C0
3E01E0
3C00F0
780078
F00038
ENDCHAR
STARTCHAR 005F
ENCODING 95
SWIDTH 600 0
DWIDTH 25 0
BBX 21 3 0 -10
BITMAP
FFFFF8
FFFFF8
FFFFF8
ENDCHAR
STARTCHAR 0060
ENCODING 96
SWIDTH 600 0
DWIDTH 25 0
BBX 9 8 6 26
BITMAP
F000
7800
3C00
1C00
1E00
0F00
0700
0380
ENDCHAR
STARTCHAR 0061
ENCODING 97
SWIDTH 600 0
DWIDTH 25 0
BBX 19 24 3 0
BITMAP
0FF800
7FFE00
7FFF80
780F80
4003C0
0003C0
0001C0
0001E0
0001E0
07FFE0
1FFFE0
3FFFE0
7E01E0
F801E0
F001E0
F001E0
F003E0
F003E0
F007E0
F00FE0
7C1FE0
7FFDE0
3FF9E0
0FE1E0
ENDCHAR
STARTCHAR 0062
ENCODING 98
SWIDTH 600 0
DWIDTH 25 0
BBX 19 32 4 0
BITMAP
F00000
F00000
F00000
F00000
F00000
F00000
F00000
F00000
F1F800
F7FE00
FFFF00
FE1F80
FC0780
F803C0
F803C0
F003C0
F001E0
F001E0
F001E0
F001E0
F001E0
F001E0
F001E0
F001E0
F003C0
F803C0
F803C0
FC0780
FE0F80
FFFF00
F7FE00
F1F800
ENDCHAR
STARTCHAR 0063
ENCODING 99
SWIDTH 600 0
DWIDTH 25 0
BBX 18 24 4 0
BITMAP
01FE00
07FF80
0FFFC0
1F03C0
3E00C0
7C0040
780000
780000
F00000
F00000
F00000
F00000
F00000
F00000
F00000
F00000
780000
780000
7C0000
3E0040
1F81C0
0FFFC0
07FFC0
01FF00
ENDCHAR
STARTCHAR 0064
ENCODING 100
SWIDTH 600 0
DWIDTH 25 0
BBX 18 32 3 0
BITMAP
0001C0
0001C0
0001C0
0001C0
0001C0
0001C0
0001C0
0001C0
07E1C0
0FF9C0
3FFDC0
3E1FC0
7C07C0
7807C0
F003C0
F003C0
F003C0
F003C0
F001C0
F001C0
F001C0
F001C0
F003C0
F003C0
F003C0
F003C0
7807C0
7807C0
3E1FC0
3FFDC0
0FF9C0
07E1C0
ENDCHAR
STARTCHAR 0065
ENCODING 101
SWIDTH 600 0
DWIDTH 25 0
BBX 20 24 3 0
BITMAP
01FC00
07FF00
1FFF80
3F07C0
3C03C0
7801E0
F801E0
F000E0
F000F0
F000F0
FFFFF0
FFFFF0
FFFFF0
E00000
F00000
F00000
F00000
F00000
780000
7C0020
3F01E0
1FFFE0
07FFE0
01FF00
ENDCHAR
STARTCHAR 0066
ENCODING 102
SWIDTH 600 0
DWIDTH 25 0
BBX 18 32 4 0
BITMAP
003FC0
00FFC0
01FFC0
01E000
03C000
03C000
03C000
03C000
03C000
FFFFC0
FFFFC0
FFFFC0
03C000
03C000
03C000
03C000
03C000
03C000
03C000
03C000
03C000
03C000
03C000
03C000
03C000
03C000
03C000
03C000
03C000
03C000
03C000
03C000
ENDCHAR
STARTCHAR 0067
ENCODING 103
SWIDTH 600 0
DWIDTH 25 0
BBX 18 33 3 -9
BITMAP
07E000
0FF9C0
1FFDC0
3E1FC0
7C07C0
7807C0
F003C0
F003C0
F003C0
F003C0
F001C0
F001C0
F001C0
F001C0
F003C0
F003C0
F003C0
F003C0
7807C0
7C07C0
3E1DC0
1FFDC0
0FF9C0
07E1C0
0003C0
0003C0
0003C0
0003C0
200780
3C0F80
3FFF00
3FFE00
0FF000
ENDCHAR
STARTCHAR 0068
ENCODING 104
SWIDTH 600 0
DWIDTH 25 0
BBX 18 32 4 0
BITMAP
F00000
F00000
F00000
F00000
F00000
F00000
F00000
F00000
F0F800
F3FE00
F7FF00
FE1F80
FC0780
F80780
F00780
F00380
F003C0
F003C0
F003C0
F003C0
F003C0
F003C0
F003C0
F003C0
F003C0
F003C0
F003C0
F003C0
F003C0
F003C0
F003C0
F003C0
ENDCHAR
STARTCHAR 0069
ENCODING 105
SWIDTH 600 0
DWIDTH 25 0
BBX 18 32 4 0
BITMAP
01E000
01E000
01E000
01E000
01E000
000000
000000
000000
000000
7FE000
7FE000
7FE000
01E000
01E000
01E000
01E000
01E000
01E000
01E000
01E000
01E000
01E000
01E000
01E000
01E000
01E000
01E000
01E000
01E000
FFFFC0
FFFFC0
FFFFC0
ENDCHAR
STARTCHAR 006A
ENCODING 106
SWIDTH 600 0
DWIDTH 25 0
BBX 12 41 4 -9
BITMAP
00F0
00F0
00F0
00F0
00F0
0000
0000
0000
0000
3FF0
3FF0
3FF0
00F0
00F0
00F0
00F0
00F0
00F0
00F0
00F0
00F0
00F0
00F0
00F0
00F0
00F0
00F0
00F0
00F0
00F0
00F0
00F0
00F0
00F0
00F0
00F0
01F0
03E0
FFE0
FFC0
FF00
ENDCHAR
STARTCHAR 006B
ENCODING 107
SWIDTH 600 0
DWIDTH 25 0
BBX 19 32 5 0
BITMAP
F00000
F00000
F00000
F00000
F00000
F00000
F00000
F00000
F00000
F007C0
F00F80
F01F00
F03E00
F07C00
F0F800
F1E000
F3C000
F78000
FFC000
FFE000
FDE000
F8F000
F0F800
F07800
F03C00
F03E00
F01F00
F00F00
F00780
F007C0
F003E0
F001E0
ENDCHAR
STARTCHAR 006C
ENCODING 108
SWIDTH 600 0
DWIDTH 25 0
BBX 18 32 3 0
BITMAP
FFC000
FFC000
FFC000
03C000
03C000
03C000
03C000
03C000
03C000
03C000
03C000
03C000
03C000
03C000
03C000
03C000
03C000
03C000
03C000
03C000
03C000
03C000
03C000
03C000
03C000
03C000
01C000
01E000
01F000
00FFC0
007FC0
001FC0
ENDCHAR
STARTCHAR 006D
ENCODING 109
SWIDTH 600 0
DWIDTH 25 0
BBX 21 24 2 0
BITMAP
03C3E0
FFE7F0
FFFFF0
F8FC78
F07878
F07838
F07838
F07838
F07038
F07038
F07038
F07038
F07038
F07038
F07038
F07038
F07038
F07038
F07038
F07038
F07038
F07038
F07038
F07038
ENDCHAR
STARTCHAR 006E
ENCODING 110
SWIDTH 600 0
DWIDTH 25 0
BBX 18 24 4 0
BITMAP
00F800
F3FE00
F7FF00
FE1F80
FC0780
F80780
F00780
F00380
F003C0
F003C0
F003C0
F003C0
F003C0
F003C0
F003C0
F003C0
F003C0
F003C0
F003C0
F003C0
F003C0
F003C0
F003C0
F003C0
ENDCHAR
STARTCHAR 006F
ENCODING 111
SWIDTH 600 0
DWIDTH 25 0
BBX 19 24 3 0
BITMAP
03F800
0FFE00
1FFF00
3E0F80
7C07C0
7803C0
7801E0
F001E0
F001E0
F001E0
F001E0
F001E0
F001E0
F001E0
F001E0
F001E0
F001E0
7801E0
7803C0
7C07C0
3E0F80
1FFF00
0FFE00
03F800
ENDCHAR
STARTCHAR 0070
ENCODING 112
SWIDTH 600 0
DWIDTH 25 0
BBX 19 33 4 -9
BITMAP
01F800
F7FE00
FFFF00
FE1F80
FC0780
F807C0
F803C0
F003C0
F003C0
F001E0
F001E0
F001E0
F001E0
F001E0
F001E0
F003C0
F003C0
F003C0
F807C0
FC0780
FE1F80
FFFF00
F7FE00
F1F800
F00000
F00000
F00000
F00000
F00000
F00000
F00000
F00000
F00000
ENDCHAR
STARTCHAR 0071
ENCODING 113
SWIDTH 600 0
DWIDTH 25 0
BBX 19 33 3 -9
BITMAP
03F000
0FF9E0
1FFDE0
3E1FE0
7C07E0
7803E0
7803E0
F003E0
F001E0
F001E0
F001E0
F001E0
F001E0
F001E0
F001E0
F001E0
F003E0
7803E0
7803E0
7C07E0
3E0FE0
1FFDE0
0FF9E0
03F1E0
0001E0
0001E0
0001E0
0001E0
0001E0
0001E0
0001E0
0001E0
0001E0
ENDCHAR
STARTCHAR 0072
ENCODING 114
SWIDTH 600 0
DWIDTH 25 0
BBX 17 24 7 0
BITMAP
007E00
F1FF80
F3FF80
F78380
FE0080
FC0000
F80000
F80000
F80000
F00000
F00000
F00000
F00000
F00000
F00000
F00000
F00000
F00000
F00000
F00000
F00000
F00000
F00000
F00000
ENDCHAR
STARTCHAR 0073
ENCODING 115
SWIDTH 600 0
DWIDTH 25 0
BBX 17 24 4 0
BITMAP
07FC00
1FFF00
3FFF00
7C0700
780100
700000
F00000
F00000
780000
7E0000
7FE000
3FFC00
0FFE00
00FF00
001F80
000780
000780
000780
000780
C00F80
F01F00
FFFE00
FFFC00
1FF000
ENDCHAR
STARTCHAR 0074
ENCODING 116
SWIDTH 600 0
DWIDTH 25 0
BBX 18 30 3 0
BITMAP
03C000
03C000
03C000
03C000
03C000
03C000
03C000
FFFFC0
FFFFC0
FFFFC0
03C000
03C000
03C000
03C000
03C000
03C000
03C000
03C000
03C000
03C000
03C000
03C000
03C000
03C000
03C000
03C000
03E000
01FFC0
00FFC0
003FC0
ENDCHAR
STARTCHAR 0075
ENCODING 117
SWIDTH 600 0
DWIDTH 25 0
BBX 18 23 4 0
BITMAP
F003C0
F003C0
F003C0
F003C0
F003C0
F003C0
F003C0
F003C0
F003C0
F003C0
F003C0
F003C0
F003C0
F003C0
F003C0
F007C0
F007C0
F007C0
780FC0
7C1FC0
7FFBC0
3FF3C0
0FC3C0
ENDCHAR
STARTCHAR 0076
ENCODING 118
SWIDTH 600 0
DWIDTH 25 0
BBX 21 23 2 0
BITMAP
F00078
700078
7800F0
7800F0
3C00F0
3C01E0
3C01E0
1E01E0
1E03C0
1E03C0
0F03C0
0F0780
0F0780
078700
078F00
038F00
03CE00
03DE00
01DE00
01FC00
01FC00
00FC00
00F800
ENDCHAR
STARTCHAR 0077
ENCODING 119
SWIDTH 600 0
DWIDTH 25 0
BBX 25 23 0 0
BITMAP
F0000780
F0000780
70000780
70000700
78000700
78000F00
38000F00
381C0F00
3C1E0E00
3C3E0E00
3C3E1E00
1C371E00
1C771C00
1E731C00
1E733C00
0E63BC00
0EE3B800
0EE1B800
0FC1F800
07C1F800
07C0F800
0780F000
0780F000
ENDCHAR
STARTCHAR 0078
ENCODING 120
SWIDTH 600 0
DWIDTH 25 0
BBX 21 23 2 0
BITMAP
7800F8
7C00F0
3C01E0
1E03C0
0F07C0
0F8780
078F00
03DE00
01FE00
01FC00
00F800
00F800
01FC00
01FE00
03DE00
078F00
0F8780
0F07C0
1E03C0
3E01E0
7C00F0
7800F8
F00078
ENDCHAR
STARTCHAR 0079
ENCODING 121
SWIDTH 600 0
DWIDTH 25 0
BBX 21 32 2 -9
BITMAP
F00078
780078
780078
7800F0
3C00F0
3C00F0
1E01E0
1E01E0
1E03C0
0F03C0
0F03C0
070780
078780
078780
03CF00
03CF00
01DE00
01FE00
01FE00
00FC00
00FC00
00F800
007800
007800
00F000
00F000
00F000
01E000
03E000
3FC000
3F8000
3E0000
ENDCHAR
STARTCHAR 007A
ENCODING 122
SWIDTH 600 0
DWIDTH 25 0
BBX 17 23 4 0
BITMAP
7FFF80
7FFF80
7FFF80
000780
000F80
001F00
001E00
003C00
007800
00F800
01F000
01E000
03C000
078000
0F8000
1F0000
1E0000
3C0000
780000
F80000
FFFF80
FFFF80
FFFF80
ENDCHAR
STARTCHAR 007B
ENCODING 123
SWIDTH 600 0
DWIDTH 25 0
BBX 16 39 5 -7
BITMAP
003F
00FF
01FF
03E0
03C0
03C0
03C0
03C0
03C0
03C0
03C0
03C0
03C0
03C0
03C0
07C0
0780
0F80
FF00
FC00
FF00
0F80
0780
0780
03C0
03C0
03C0
03C0
03C0
03C0
03C0
03C0
03C0
03C0
03C0
03E0
01FF
00FF
003F
ENDCHAR
STARTCHAR 007C
ENCODING 124
SWIDTH 600 0
DWIDTH 25 0
BBX 3 42 11 -10
BITMAP
E0
E0
E0
E0
E0
E0
E0
E0
E0
E0
E0
E0
E0
E0
E0
E0
E0
E0
E0
E0
E0
E0
E0
E0
E0
E0
E0
E0
E0
E0
E0
E0
E0
E0
E0
E0
E0
E0
E0
E0
E0
E0
ENDCHAR
STARTCHAR 007D
ENCODING 125
SWIDTH 600 0
DWIDTH 25 0
BBX 16 39 5 -7
BITMAP
FC00
FF00
FF00
0F80
0780
0780
0380
0380
0380
0380
0380
0380
0380
0380
0380
03C0
03C0
03F0
01FF
003F
01FF
01F0
03C0
03C0
0380
0380
0380
0380
0380
0380
0380
0380
0380
0780
0780
0F80
FF00
FF00
F800
ENDCHAR
STARTCHAR 007E
ENCODING 126
SWIDTH 600 0
DWIDTH 25 0
BBX 21 6 2 10
BITMAP
1F8008
7FE008
FFF838
E0FFF8
C01FF0
0007C0
ENDCHAR
STARTCHAR 00A0
ENCODING 160
SWIDTH 600 0
DWIDTH 25 0
BBX 0 0 0 0
BITMAP
ENDCHAR
STARTCHAR 00A1
ENCODING 161
SWIDTH 600 0
DWIDTH 25 0
BBX 4 31 11 0
BITMAP
F0
F0
F0
F0
F0
00
00
00
00
00
E0
E0
E0
F0
F0
F0
F0
F0
F0
F0
F0
F0
F0
F0
F0
F0
F0
F0
F0
F0
F0
ENDCHAR
STARTCHAR 00A2
ENCODING 162
SWIDTH 600 0
DWIDTH 25 0
BBX 18 36 4 -6
BITMAP
003000
003000
003000
003000
003000
003000
00FF00
03FFC0
0FFFC0
1F31C0
3E3040
3C3000
783000
783000
783000
783000
F03000
F03000
F03000
F03000
783000
783000
783000
7C3000
3C3000
3E3040
1FB1C0
0FFFC0
07FFC0
00FF00
003000
003000
003000
003000
003000
003000
ENDCHAR
STARTCHAR 00A3
ENCODING 163
SWIDTH 600 0
DWIDTH 25 0
BBX 20 32 3 0
BITMAP
003FC0
00FFE0
01FFE0
03F060
03E020
07C000
078000
078000
078000
078000
078000
078000
078000
078000
078000
078000
078000
7FFF00
7FFF00
7FFF00
078000
078000
078000
078000
078000
078000
078000
078000
078000
FFFFF0
FFFFF0
FFFFF0
ENDCHAR
STARTCHAR 00A4
ENCODING 164
SWIDTH 600 0
DWIDTH 25 0
BBX 18 18 4 4
BITMAP
200080
F001C0
79F3C0
3FFF80
1FFF00
0E0E00
1C0700
180700
380300
380300
180700
1C0700
0E0E00
1FFF00
3FFF80
79F3C0
F001C0
200080
ENDCHAR
STARTCHAR 00A5
ENCODING 165
SWIDTH 600 0
DWIDTH 25 0
BBX 23 31 1 0
BITMAP
F0001E
78003E
7C003C
3C0078
3E0078
1E00F0
0F00F0
0F01E0
0783C0
0783C0
03C780
7FC7FC
7FEFFC
7FFFFC
00FE00
007E00
007C00
003C00
7FFFFC
7FFFFC
7FFFFC
003C00
003C00
003C00
003C00
003C00
003C00
003C00
003C00
003C00
003C00
ENDCHAR
STARTCHAR 00A6
ENCODING 166
SWIDTH 600 0
DWIDTH 25 0
BBX 3 37 11 -7
BITMAP
E0
E0
E0
E0
E0
E0
E0
E0
E0
E0
E0
E0
E0
E0
E0
E0
00
00
00
00
00
E0
E0
E0
E0
E0
E0
E0
E0
E0
E0
E0
E0
E0
E0
E0
E0
ENDCHAR
STARTCHAR 00A7
ENCODING 167
SWIDTH 600 0
DWIDTH 25 0
BBX 17 36 4 -4
BITMAP
03F800
0FFE00
1FFE00
3E0600
3C0000
780000
780000
3C0000
3E0000
1F0000
0FC000
3FF000
79F800
70FC00
F03F00
E01F00
E00780
F00780
F00380
780380
7E0380
3F0780
1FC700
07FE00
03FC00
00FC00
003E00
001E00
000F00
000F00
000F00
000F00
303E00
3FFE00
3FFC00
0FF000
ENDCHAR
STARTCHAR 00A8
ENCODING 168
SWIDTH 600 0
DWIDTH 25 0
BBX 12 4 7 28
BITMAP
F0F0
F0F0
F0F0
F0F0
ENDCHAR
STARTCHAR 00A9
ENCODING 169
SWIDTH 600 0
DWIDTH 25 0
BBX 25 25 0 3
BITMAP
007F0000
01FFE000
0780F000
0E003800
1C001C00
383F0E00
30FFC700
61E0C300
63800380
E3800180
C7000180
C7000180
C7000180
C7000180
C7000180
E3800180
63800380
61E0C300
30FFC700
383F8E00
1C001C00
0E003800
0780F000
01FFE000
007F0000
ENDCHAR
STARTCHAR 00AA
ENCODING 170
SWIDTH 600 0
DWIDTH 25 0
BBX 14 21 6 11
BITMAP
3FC0
7FF0
6070
0038
0038
0018
1FFC
7FFC
F81C
E01C
E03C
E03C
E03C
E07C
F0FC
7FDC
1F1C
0000
0000
FFFC
FFFC
ENDCHAR
STARTCHAR 00AB
ENCODING 171
SWIDTH 600 0
DWIDTH 25 0
BBX 19 19 2 3
BITMAP
004020
00C020
01C060
03C1E0
0783E0
0F07C0
1E0F80
3C1E00
783C00
F03800
783C00
3C1E00
1E0F80
0F07C0
0783E0
03C1E0
01C060
00C020
004020
ENDCHAR
STARTCHAR 00AC
ENCODING 172
SWIDTH 600 0
DWIDTH 25 0
BBX 21 10 2 8
BITMAP
FFFFF8
FFFFF8
FFFFF8
000038
000038
000038
000038
000038
000038
000038
ENDCHAR
STARTCHAR 00AD
ENCODING 173
SWIDTH 600 0
DWIDTH 25 0
BBX 11 3 7 10
BITMAP
FFE0
FFE0
FFE0
ENDCHAR
STARTCHAR 00AE
ENCODING 174
SWIDTH 600 0
DWIDTH 25 0
BBX 25 25 0 3
BITMAP
007F0000
01FFE000
0780F000
0E003800
1C001C00
39FF0E00
31FF8700
61C1C300
61C1C380
E1C1C180
C1C1C180
C1FF8180
C1FE0180
C1C70180
C1C38180
E1C38180
61C1C380
61C1C300
31C0E700
39C0EE00
1C001C00
0E003800
0780F000
01FFE000
007F0000
ENDCHAR
STARTCHAR 00AF
ENCODING 175
SWIDTH 600 0
DWIDTH 25 0
BBX 13 3 6 28
BITMAP
FFF8
FFF8
FFF8
ENDCHAR
STARTCHAR 00B0
ENCODING 176
SWIDTH 600 0
DWIDTH 25 0
BBX 13 13 6 19
BITMAP
0F80
3FE0
7FF0
7870
E038
E038
E018
E038
E038
7870
7FF0
3FE0
0F80
ENDCHAR
STARTCHAR 00B1
ENCODING 177
SWIDTH 600 0
DWIDTH 25 0
BBX 21 24 2 0
BITMAP
007000
007000
007000
007000
007000
007000
007000
FFFFF8
FFFFF8
FFFFF8
007000
007000
007000
007000
007000
007000
007000
000000
000000
000000
000000
FFFFF8
FFFFF8
FFFFF8
ENDCHAR
STARTCHAR 00B2
ENCODING 178
SWIDTH 600 0
DWIDTH 25 0
BBX 11 17 7 15
BITMAP
7F00
FFC0
81E0
00E0
00E0
00E0
00E0
01C0
0380
0700
0E00
1C00
3800
7000
E000
FFE0
FFE0
ENDCHAR
STARTCHAR 00B3
ENCODING 179
SWIDTH 600 0
DWIDTH 25 0
BBX 12 17 7 15
BITMAP
3F80
FFC0
C1E0
00E0
00E0
01E0
1F80
1FC0
01E0
00F0
0070
0070
0070
00F0
81E0
FFC0
7F00
ENDCHAR
STARTCHAR 00B4
ENCODING 180
SWIDTH 600 0
DWIDTH 25 0
BBX 9 8 10 26
BITMAP
0780
0F00
0E00
1E00
3C00
3800
7000
E000
ENDCHAR
STARTCHAR 00B5
ENCODING 181
SWIDTH 600 0
DWIDTH 25 0
BBX 20 32 4 -9
BITMAP
F003C0
F003C0
F003C0
F003C0
F003C0
F003C0
F003C0
F003C0
F003C0
F003C0
F003C0
F003C0
F003C0
F003C0
F003C0
F003C0
F007C0
F007C0
F80FC0
FC1FD0
EFFFF0
E7F9F0
E3E0F0
E00000
E00000
E00000
E00000
E00000
E00000
E00000
E00000
E00000
ENDCHAR
STARTCHAR 00B6
ENCODING 182
SWIDTH 600 0
DWIDTH 25 0
BBX 19 35 2 -4
BITMAP
03FFE0
0FFFE0
1FFFE0
3FF0E0
7FF0E0
7FF0E0
FFF0E0
FFF0E0
FFF0E0
FFF0E0
FFF0E0
7FF0E0
7FF0E0
3FF0E0
1FF0E0
0FF0E0
03F0E0
0070E0
0070E0
0070E0
0070E0
0070E0
0070E0
0070E0
0070E0
0070E0
0070E0
0070E0
0070E0
0070E0
0070E0
0070E0
0070E0
0070E0
0070E0
ENDCHAR
STARTCHAR 00B7
ENCODING 183
SWIDTH 600 0
DWIDTH 25 0
BBX 5 6 10 12
BITMAP
F8
F8
F8
F8
F8
F8
ENDCHAR
STARTCHAR 00B8
ENCODING 184
SWIDTH 600 0
DWIDTH 25 0
BBX 9 8 8 -8
BITMAP
0E00
0700
0300
0300
8780
FF00
FF00
FE00
ENDCHAR
STARTCHAR 00B9
ENCODING 185
SWIDTH 600 0
DWIDTH 25 0
BBX 12 17 7 15
BITMAP
3F00
FF00
C700
0700
0700
0700
0700
0700
0700
0700
0700
0700
0700
0700
0700
FFF0
FFF0
ENDCHAR
STARTCHAR 00BA
ENCODING 186
SWIDTH 600 0
DWIDTH 25 0
BBX 15 21 5 11
BITMAP
07E0
1FF0
3C38
781C
701E
F00E
E00E
E00E
E00E
E00E
E00E
F00E
701E
781C
3C38
1FF0
07E0
0000
0000
7FFE
7FFE
ENDCHAR
STARTCHAR 00BB
ENCODING 187
SWIDTH 600 0
DWIDTH 25 0
BBX 19 19 4 3
BITMAP
804000
C06000
E07000
F07800
783C00
3C1E00
1E0F00
0F07C0
0783E0
03C1E0
0783E0
0F07C0
1E0F80
3C1E00
783C00
F07800
E07000
C06000
804000
ENDCHAR
STARTCHAR 00BC
ENCODING 188
SWIDTH 600 0
DWIDTH 25 0
BBX 22 39 1 -4
BITMAP
1F0000
7F0000
670000
070000
070000
070000
070000
070000
070000
070000
070000
070000
070000
070000
070000
7FF000
7FF000
000018
0001FC
003FF0
03FE00
3FE000
FE01E0
C001E0
0003E0
0007E0
0006E0
000CE0
001CE0
0038E0
0030E0
0070E0
00E0E0
00FFF8
00FFF8
0000E0
0000E0
0000E0
0000E0
ENDCHAR
STARTCHAR 00BD
ENCODING 189
SWIDTH 600 0
DWIDTH 25 0
BBX 22 39 1 -4
BITMAP
1F0000
7F0000
670000
070000
070000
070000
070000
070000
070000
070000
070000
070000
070000
070000
070000
7FF000
7FF000
000018
0001FC
003FF0
03FE00
3FE000
FE1FC0
C03FF0
002078
000038
000038
000038
000038
000070
0000E0
0001C0
000380
000700
000E00
001E00
003C00
003FF8
003FF8
ENDCHAR
STARTCHAR 00BE
ENCODING 190
SWIDTH 600 0
DWIDTH 25 0
BBX 22 39 1 -4
BITMAP
1FC000
3FF000
207800
003800
003800
007000
0FE000
0FE000
00F000
003800
003800
003800
003800
003800
60F000
7FE000
3FC000
000018
0001FC
003FF0
03FE00
3FE000
FE01E0
C001E0
0003E0
0007E0
0006E0
000CE0
001CE0
0038E0
0030E0
0070E0
00E0E0
00FFF8
00FFF8
0000E0
0000E0
0000E0
0000E0
ENDCHAR
STARTCHAR 00BF
ENCODING 191
SWIDTH 600 0
DWIDTH 25 0
BBX 16 31 4 0
BITMAP
01E0
01E0
01E0
01E0
01E0
0000
0000
0000
01E0
01E0
01E0
01E0
01E0
01E0
03E0
07C0
0F80
1F00
3E00
3C00
7C00
F800
F000
F000
F000
F001
F803
7E0F
3FFF
1FFE
07F0
ENDCHAR
STARTCHAR 00C0
ENCODING 192
SWIDTH 600 0
DWIDTH 25 0
BBX 23 39 1 0
BITMAP
01E000
00F000
007800
003800
001C00
000000
000000
000000
007C00
007E00
00FE00
00FE00
00EF00
01EF00
01EF00
01E700
01C780
03C780
03C780
03C3C0
0783C0
0783C0
0781E0
0F81E0
0F01E0
0F01E0
0F00F0
1E00F0
1FFFF0
1FFFF8
3FFFF8
3C0078
3C007C
7C003C
78003C
78003C
78001E
F0001E
F0001E
ENDCHAR
STARTCHAR 00C1
ENCODING 193
SWIDTH 600 0
DWIDTH 25 0
BBX 23 39 1 0
BITMAP
000F00
000E00
001C00
003800
007000
000000
000000
000000
007C00
007E00
00FE00
00FE00
00EF00
01EF00
01EF00
01E700
01C780
03C780
03C780
03C3C0
0783C0
0783C0
0781E0
0F81E0
0F01E0
0F01E0
0F00F0
1E00F0
1FFFF0
1FFFF8
3FFFF8
3C0078
3C007C
7C003C
78003C
78003C
78001E
F0001E
F0001E
ENDCHAR
STARTCHAR 00C2
ENCODING 194
SWIDTH 600 0
DWIDTH 25 0
BBX 23 39 1 0
BITMAP
007C00
00FE00
00EF00
01C780
038180
000000
000000
000000
007C00
007E00
00FE00
00FE00
00EF00
01EF00
01EF00
01E700
01C780
03C780
03C780
03C3C0
0783C0
0783C0
0781E0
0F81E0
0F01E0
0F01E0
0F00F0
1E00F0
1FFFF0
1FFFF8
3FFFF8
3C0078
3C007C
7C003C
78003C
78003C
78001E
F0001E
F0001E
ENDCHAR
STARTCHAR 00C3
ENCODING 195
SWIDTH 600 0
DWIDTH 25 0
BBX 23 40 1 0
BITMAP
01E0C0
03F9C0
07FFC0
073F80
060F00
000000
000000
000000
000000
007C00
007E00
00FE00
00FE00
00EF00
01EF00
01EF00
01E700
01C780
03C780
03C780
03C3C0
0783C0
0783C0
0781E0
0F81E0
0F01E0
0F01E0
0F00F0
1E00F0
1FFFF0
1FFFF8
3FFFF8
3C0078
3C007C
7C003C
78003C
78003C
78001E
F0001E
F0001E
ENDCHAR
STARTCHAR 00C4
ENCODING 196
SWIDTH 600 0
DWIDTH 25 0
BBX 23 39 1 0
BITMAP
03C3C0
03C3C0
03C3C0
03C3C0
000000
000000
000000
000000
007C00
007E00
00FE00
00FE00
00EF00
01EF00
01EF00
01E700
01C780
03C780
03C780
03C3C0
0783C0
0783C0
0781E0
0F81E0
0F01E0
0F01E0
0F00F0
1E00F0
1FFFF0
1FFFF8
3FFFF8
3C0078
3C007C
7C003C
78003C
78003C
78001E
F0001E
F0001E
ENDCHAR
STARTCHAR 00C5
ENCODING 197
SWIDTH 600 0
DWIDTH 25 0
BBX 23 39 1 0
BITMAP
007C00
00FE00
01FF00
03C780
038380
038180
038180
038380
01C780
01FF00
00FE00
00FE00
00FE00
00EF00
01EF00
01E700
01E780
03C780
03C780
03C3C0
0783C0
0783C0
0783C0
0781E0
0F01E0
0F01E0
0F00F0
1E00F0
1FFFF0
1FFFF8
3FFFF8
3C0078
3C007C
7C003C
78003C
78003C
78001E
F0001E
F0001E
ENDCHAR
STARTCHAR 00C6
ENCODING 198
SWIDTH 600 0
DWIDTH 25 0
BBX 24 31 0 0
BITMAP
00FFFF
00FFFF
00FFFF
01E780
01E780
01C780
01C780
03C780
03C780
038780
038780
078780
078780
0707FE
0F07FE
0F07FE
0F0780
0E0780
1E0780
1E0780
1FFF80
1FFF80
3FFF80
3C0780
380780
780780
780780
780780
7007FF
F007FF
F007FF
ENDCHAR
STARTCHAR 00C7
ENCODING 199
SWIDTH 600 0
DWIDTH 25 0
BBX 19 40 3 -8
BITMAP
007F00
03FFC0
07FFE0
0F81E0
1F0060
3E0020
3C0000
7C0000
780000
780000
F80000
F80000
F00000
F00000
F00000
F00000
F00000
F00000
F00000
F00000
F80000
F80000
780000
780000
7C0000
3C0000
3E0020
1F0060
0F81E0
07FFE0
03FFC0
00FF00
001C00
000E00
000600
000700
010F00
01FE00
01FE00
01FC00
ENDCHAR
STARTCHAR 00C8
ENCODING 200
SWIDTH 600 0
DWIDTH 25 0
BBX 19 39 4 0
BITMAP
070000
078000
03C000
01E000
00F000
000000
000000
000000
FFFFC0
FFFFC0
FFFFC0
F00000
F00000
F00000
F00000
F00000
F00000
F00000
F00000
F00000
F00000
FFFFC0
FFFFC0
FFFFC0
F00000
F00000
F00000
F00000
F00000
F00000
F00000
F00000
F00000
F00000
F00000
F00000
FFFFE0
FFFFE0
FFFFE0
ENDCHAR
STARTCHAR 00C9
ENCODING 201
SWIDTH 600 0
DWIDTH 25 0
BBX 19 39 4 0
BITMAP
003C00
007800
00F000
01E000
01C000
000000
000000
000000
FFFFC0
FFFFC0
FFFFC0
F00000
F00000
F00000
F00000
F00000
F00000
F00000
F00000
F00000
F00000
FFFFC0
FFFFC0
FFFFC0
F00000
F00000
F00000
F00000
F00000
F00000
F00000
F00000
F00000
F00000
F00000
F00000
FFFFE0
FFFFE0
FFFFE0
ENDCHAR
STARTCHAR 00CA
ENCODING 202
SWIDTH 600 0
DWIDTH 25 0
BBX 19 39 4 0
BITMAP
01E000
03F000
073800
0E1C00
1C0E00
000000
000000
000000
FFFFC0
FFFFC0
FFFFC0
F00000
F00000
F00000
F00000
F00000
F00000
F00000
F00000
F00000
F00000
FFFFC0
FFFFC0
FFFFC0
F00000
F00000
F00000
F00000
F00000
F00000
F00000
F00000
F00000
F00000
F00000
F00000
FFFFE0
FFFFE0
FFFFE0
ENDCHAR
STARTCHAR 00CB
ENCODING 203
SWIDTH 600 0
DWIDTH 25 0
BBX 19 39 4 0
BITMAP
1E1E00
1E1E00
1E1E00
1E1E00
000000
000000
000000
000000
FFFFC0
FFFFC0
FFFFC0
F00000
F00000
F00000
F00000
F00000
F00000
F00000
F00000
F00000
F00000
FFFFC0
FFFFC0
FFFFC0
F00000
F00000
F00000
F00000
F00000
F00000
F00000
F00000
F00000
F00000
F00000
F00000
FFFFE0
FFFFE0
FFFFE0
ENDCHAR
STARTCHAR 00CC
ENCODING 204
SWIDTH 600 0
DWIDTH 25 0
BBX 17 39 4 0
BITMAP
0F0000
078000
03C000
01C000
00E000
000000
000000
000000
FFFF80
FFFF80
FFFF80
01E000
01E000
01E000
01E000
01E000
01E000
01E000
01E000
01E000
01E000
01E000
01E000
01E000
01E000
01E000
01E000
01E000
01E000
01E000
01E000
01E000
01E000
01E000
01E000
01E000
FFFF80
FFFF80
FFFF80
ENDCHAR
STARTCHAR 00CD
ENCODING 205
SWIDTH 600 0
DWIDTH 25 0
BBX 17 39 4 0
BITMAP
007800
007000
00E000
01C000
038000
000000
000000
000000
FFFF80
FFFF80
FFFF80
01E000
01E000
01E000
01E000
01E000
01E000
01E000
01E000
01E000
01E000
01E000
01E000
01E000
01E000
01E000
01E000
01E000
01E000
01E000
01E000
01E000
01E000
01E000
01E000
01E000
FFFF80
FFFF80
FFFF80
ENDCHAR
STARTCHAR 00CE
ENCODING 206
SWIDTH 600 0
DWIDTH 25 0
BBX 17 39 4 0
BITMAP
03E000
07F000
077800
0E3C00
1C0C00
000000
000000
000000
FFFF80
FFFF80
FFFF80
01E000
01E000
01E000
01E000
01E000
01E000
01E000
01E000
01E000
01E000
01E000
01E000
01E000
01E000
01E000
01E000
01E000
01E000
01E000
01E000
01E000
01E000
01E000
01E000
01E000
FFFF80
FFFF80
FFFF80
ENDCHAR
STARTCHAR 00CF
ENCODING 207
SWIDTH 600 0
DWIDTH 25 0
BBX 17 39 4 0
BITMAP
1E1E00
1E1E00
1E1E00
1E1E00
000000
000000
000000
000000
FFFF80
FFFF80
FFFF80
01E000
01E000
01E000
01E000
01E000
01E000
01E000
01E000
01E000
01E000
01E000
01E000
01E000
01E000
01E000
01E000
01E000
01E000
01E000
01E000
01E000
01E000
01E000
01E000
01E000
FFFF80
FFFF80
FFFF80
ENDCHAR
STARTCHAR 00D0
ENCODING 208
SWIDTH 600 0
DWIDTH 25 0
BBX 23 31 0 0
BITMAP
1FFC00
1FFF00
1FFFC0
1E07E0
1E01F0
1E00F0
1E0078
1E0078
1E003C
1E003C
1E003C
1E003C
1E003C
FFF03E
FFF03E
FFF03E
1E003E
1E003E
1E003C
1E003C
1E003C
1E003C
1E003C
1E0078
1E0078
1E00F0
1E01F0
1E07E0
1FFFC0
1FFF00
1FF800
ENDCHAR
STARTCHAR 00D1
ENCODING 209
SWIDTH 600 0
DWIDTH 25 0
BBX 19 40 3 0
BITMAP
078700
1FE700
1FFF00
18FE00
183C00
000000
000000
000000
000000
F801E0
FC01E0
FC01E0
FE01E0
FE01E0
FE01E0
FF01E0
F701E0
F781E0
F781E0
F381E0
F3C1E0
F1C1E0
F1E1E0
F1E1E0
F0E1E0
F0F1E0
F071E0
F079E0
F039E0
F039E0
F03DE0
F01DE0
F01FE0
F00FE0
F00FE0
F00FE0
F007E0
F007E0
F003E0
F003E0
ENDCHAR
STARTCHAR 00D2
ENCODING 210
SWIDTH 600 0
DWIDTH 25 0
BBX 21 39 2 0
BITMAP
03C000
01E000
00F000
007000
003800
000000
000000
01FC00
07FF00
0FFF80
1F07C0
1E03E0
3C01E0
3C01F0
7C00F0
7800F0
7800F0
7800F8
7800F8
7800F8
F800F8
F80078
F80078
F80078
F80078
F800F8
7800F8
7800F8
7800F8
7800F0
7800F0
7C00F0
3C01F0
3C01E0
1E03E0
1F07C0
0FFF80
07FF00
01FC00
ENDCHAR
STARTCHAR 00D3
ENCODING 211
SWIDTH 600 0
DWIDTH 25 0
BBX 21 39 2 0
BITMAP
001E00
001C00
003800
007000
00E000
000000
000000
01FC00
07FF00
0FFF80
1F07C0
1E03E0
3C01E0
3C01F0
7C00F0
7800F0
7800F0
7800F8
7800F8
7800F8
F800F8
F80078
F80078
F80078
F80078
F800F8
7800F8
7800F8
7800F8
7800F0
7800F0
7C00F0
3C01F0
3C01E0
1E03E0
1F07C0
0FFF80
07FF00
01FC00
ENDCHAR
STARTCHAR 00D4
ENCODING 212
SWIDTH 600 0
DWIDTH 25 0
BBX 21 39 2 0
BITMAP
00F800
01FC00
01DE00
038F00
070300
000000
000000
01FC00
07FF00
0FFF80
1F07C0
1E03E0
3C01E0
3C01F0
7C00F0
7800F0
7800F0
7800F8
7800F8
7800F8
F800F8
F80078
F80078
F80078
F80078
F800F8
7800F8
7800F8
7800F8
7800F0
7800F0
7C00F0
3C01F0
3C01E0
1E03E0
1F07C0
0FFF80
07FF00
01FC00
ENDCHAR
STARTCHAR 00D5
ENCODING 213
SWIDTH 600 0
DWIDTH 25 0
BBX 21 40 2 0
BITMAP
03C180
07F380
0FFF80
0E7F00
0C1E00
000000
000000
000000
01FC00
07FF00
0FFF80
1F07C0
1E03E0
3C01E0
3C01F0
7C00F0
7800F0
7800F0
7800F8
7800F8
7800F8
F800F8
F80078
F80078
F80078
F80078
F800F8
7800F8
7800F8
7800F8
7800F0
7800F0
7C00F0
3C01F0
3C01E0
1E03E0
1F07C0
0FFF80
07FF00
01FC00
ENDCHAR
STARTCHAR 00D6
ENCODING 214
SWIDTH 600 0
DWIDTH 25 0
BBX 21 39 2 0
BITMAP
078780
078780
078780
078780
000000
000000
000000
01FC00
07FF00
0FFF80
1F07C0
1E03E0
3C01E0
3C01F0
7C00F0
7800F0
7800F0
7800F8
7800F8
7800F8
F800F8
F80078
F80078
F80078
F80078
F800F8
7800F8
7800F8
7800F8
7800F0
7800F0
7C00F0
3C01F0
3C01E0
1E03E0
1F07C0
0FFF80
07FF00
01FC00
ENDCHAR
STARTCHAR 00D7
ENCODING 215
SWIDTH 600 0
DWIDTH 25 0
BBX 19 19 3 4
BITMAP
200080
7001C0
F803E0
7C07C0
3E0F80
1F1F00
0FBE00
07FC00
03F800
01F000
03F800
07FC00
0FBE00
1F1F00
3E0F80
7C07C0
F803E0
7001C0
200080
ENDCHAR
STARTCHAR 00D8
ENCODING 216
SWIDTH 600 0
DWIDTH 25 0
BBX 24 34 0 -1
BITMAP
000002
007F03
01FFC7
03FFEE
07C1FE
0780FC
0F0078
0F007C
1F007C
1E00FC
1E01FC
1E01FE
1E03BE
1E073E
3E071E
3E0E1E
3E1C1E
3E1C1E
3E381E
3E703E
1E703E
1EE03E
1FC03E
1FC03C
1F803C
1F003C
1F007C
0F0078
1F80F8
3FC1F0
3BFFE0
71FFC0
E07F00
600000
ENDCHAR
STARTCHAR 00D9
ENCODING 217
SWIDTH 600 0
DWIDTH 25 0
BBX 19 39 3 0
BITMAP
078000
03C000
01E000
00E000
007000
000000
000000
000000
F001E0
F001E0
F001E0
F001E0
F001E0
F001E0
F001E0
F001E0
F001E0
F001E0
F001E0
F001E0
F001E0
F001E0
F001E0
F001E0
F001E0
F001E0
F001E0
F001E0
F001E0
F001E0
F001E0
F001E0
F001E0
7801E0
7803C0
3E0FC0
3FFF80
0FFE00
03F800
ENDCHAR
STARTCHAR 00DA
ENCODING 218
SWIDTH 600 0
DWIDTH 25 0
BBX 19 39 3 0
BITMAP
003C00
003800
007000
00E000
01C000
000000
000000
000000
F001E0
F001E0
F001E0
F001E0
F001E0
F001E0
F001E0
F001E0
F001E0
F001E0
F001E0
F001E0
F001E0
F001E0
F001E0
F001E0
F001E0
F001E0
F001E0
F001E0
F001E0
F001E0
F001E0
F001E0
F001E0
7801E0
7803C0
3E0FC0
3FFF80
0FFE00
03F800
ENDCHAR
STARTCHAR 00DB
ENCODING 219
SWIDTH 600 0
DWIDTH 25 0
BBX 19 39 3 0
BITMAP
01F000
03F800
03BC00
071E00
0E0600
000000
000000
000000
F001E0
F001E0
F001E0
F001E0
F001E0
F001E0
F001E0
F001E0
F001E0
F001E0
F001E0
F001E0
F001E0
F001E0
F001E0
F001E0
F001E0
F001E0
F001E0
F001E0
F001E0
F001E0
F001E0
F001E0
F001E0
7801E0
7803C0
3E0FC0
3FFF80
0FFE00
03F800
ENDCHAR
STARTCHAR 00DC
ENCODING 220
SWIDTH 600 0
DWIDTH 25 0
BBX 19 39 3 0
BITMAP
0F0F00
0F0F00
0F0F00
0F0F00
000000
000000
000000
000000
F001E0
F001E0
F001E0
F001E0
F001E0
F001E0
F001E0
F001E0
F001E0
F001E0
F001E0
F001E0
F001E0
F001E0
F001E0
F001E0
F001E0
F001E0
F001E0
F001E0
F001E0
F001E0
F001E0
F001E0
F001E0
7801E0
7803C0
3E0FC0
3FFF80
0FFE00
03F800
ENDCHAR
STARTCHAR 00DD
ENCODING 221
SWIDTH 600 0
DWIDTH 25 0
BBX 23 39 1 0
BITMAP
000F00
000E00
001C00
003800
007000
000000
000000
000000
F0001E
78003E
7C003C
3C007C
3E0078
1E00F0
1F00F0
0F01E0
0783E0
0783C0
03C7C0
03C780
01EF00
01FF00
00FE00
007E00
007C00
003C00
003C00
003C00
003C00
003C00
003C00
003C00
003C00
003C00
003C00
003C00
003C00
003C00
003C00
ENDCHAR
STARTCHAR 00DE
ENCODING 222
SWIDTH 600 0
DWIDTH 25 0
BBX 20 31 4 0
BITMAP
F00000
F00000
F00000
F00000
F00000
F00000
FFFC00
FFFF00
FFFFC0
F00FC0
F003E0
F001E0
F001F0
F001F0
F000F0
F001F0
F001F0
F001F0
F001E0
F003E0
F00FC0
FFFFC0
FFFF00
FFFC00
F00000
F00000
F00000
F00000
F00000
F00000
F00000
ENDCHAR
STARTCHAR 00DF
ENCODING 223
SWIDTH 600 0
DWIDTH 25 0
BBX 20 32 4 0
BITMAP
07F000
1FFC00
3FFE00
7C1F00
F80F00
F00780
F00780
F00780
F01F80
F07C00
F0F000
F1E000
F1E000
F1E000
F1E000
F1E000
F1F000
F0FC00
F07E00
F03F80
F00FC0
F007C0
F001E0
F001E0
F000F0
F000F0
F000E0
F001E0
F603E0
F7FFC0
F7FF80
F1FE00
ENDCHAR
STARTCHAR 00E0
ENCODING 224
SWIDTH 600 0
DWIDTH 25 0
BBX 19 34 3 0
BITMAP
1E0000
0F0000
078000
038000
03C000
01E000
00E000
007000
000000
000000
0FF800
7FFE00
7FFF80
780F80
4003C0
0003C0
0001C0
0001E0
0001E0
07FFE0
1FFFE0
3FFFE0
7E01E0
F801E0
F001E0
F001E0
F003E0
F003E0
F007E0
F00FE0
7C1FE0
7FFDE0
3FF9E0
0FE1E0
ENDCHAR
STARTCHAR 00E1
ENCODING 225
SWIDTH 600 0
DWIDTH 25 0
BBX 19 34 3 0
BITMAP
000F00
001E00
001C00
003C00
007800
007000
00E000
01C000
000000
000000
0FF800
7FFE00
7FFF80
780F80
4003C0
0003C0
0001C0
0001E0
0001E0
07FFE0
1FFFE0
3FFFE0
7E01E0
F801E0
F001E0
F001E0
F003E0
F003E0
F007E0
F00FE0
7C1FE0
7FFDE0
3FF9E0
0FE1E0
ENDCHAR
STARTCHAR 00E2
ENCODING 226
SWIDTH 600 0
DWIDTH 25 0
BBX 19 34 3 0
BITMAP
00E000
01F000
01F800
03B800
071C00
070E00
0E0E00
1C0700
000000
000000
0FF800
7FFE00
7FFF80
780F80
4003C0
0003C0
0001C0
0001E0
0001E0
07FFE0
1FFFE0
3FFFE0
7E01E0
F801E0
F001E0
F001E0
F003E0
F003E0
F007E0
F00FE0
7C1FE0
7FFDE0
3FF9E0
0FE1E0
ENDCHAR
STARTCHAR 00E3
ENCODING 227
SWIDTH 600 0
DWIDTH 25 0
BBX 19 33 3 0
BITMAP
078300
0FC300
1FE700
1C7F00
1C7E00
181C00
000000
000000
000000
0FF800
7FFE00
7FFF80
780F80
4003C0
0003C0
0001C0
0001E0
0001E0
07FFE0
1FFFE0
3FFFE0
7E01E0
F801E0
F001E0
F001E0
F003E0
F003E0
F007E0
F00FE0
7C1FE0
7FFDE0
3FF9E0
0FE1E0
ENDCHAR
STARTCHAR 00E4
ENCODING 228
SWIDTH 600 0
DWIDTH 25 0
BBX 19 32 3 0
BITMAP
0F0F00
0F0F00
0F0F00
0F0F00
000000
000000
000000
000000
0FF800
7FFE00
7FFF80
780F80
4003C0
0003C0
0001C0
0001E0
0001E0
07FFE0
1FFFE0
3FFFE0
7E01E0
F801E0
F001E0
F001E0
F003E0
F003E0
F007E0
F00FE0
7C1FE0
7FFDE0
3FF9E0
0FE1E0
ENDCHAR
STARTCHAR 00E5
ENCODING 229
SWIDTH 600 0
DWIDTH 25 0
BBX 19 37 3 0
BITMAP
01F000
03FC00
07FC00
0F1E00
0E0E00
0E0600
0E0E00
0F0E00
07FC00
03FC00
01F000
000000
000000
0FF800
7FFE00
7FFF80
780F80
4003C0
0003C0
0001C0
0001E0
0001E0
07FFE0
1FFFE0
3FFFE0
7E01E0
F801E0
F001E0
F001E0
F003E0
F003E0
F007E0
F00FE0
7C1FE0
7FFDE0
3FF9E0
0FE1E0
ENDCHAR
STARTCHAR 00E6
ENCODING 230
SWIDTH 600 0
DWIDTH 25 0
BBX 24 24 1 0
BITMAP
0F83F0
3FE7F8
7FFFFC
70FE1E
407C1E
003C0E
003C0E
003C0E
003C0F
003C0F
0FFFFF
3FFFFF
7FFFFF
783C00
F03C00
E03C00
E03C00
E03C00
E03C00
F07E02
F87F06
7FFFFE
3FE7FE
1F81FC
ENDCHAR
STARTCHAR 00E7
ENCODING 231
SWIDTH 600 0
DWIDTH 25 0
BBX 18 32 4 -8
BITMAP
01FE00
07FF80
0FFFC0
1F03C0
3E00C0
7C0040
780000
780000
F00000
F00000
F00000
F00000
F00000
F00000
F00000
F00000
780000
780000
7C0000
3E0040
1F81C0
0FFFC0
07FFC0
01FF00
003800
001C00
000C00
000E00
021E00
03FE00
03FC00
01F800
ENDCHAR
STARTCHAR 00E8
ENCODING 232
SWIDTH 600 0
DWIDTH 25 0
BBX 20 34 3 0
BITMAP
1E0000
0F0000
078000
03C000
01C000
00E000
00F000
007000
000000
000000
01FC00
07FF00
1FFF80
3F07C0
3C03C0
7801E0
F801E0
F000E0
F000F0
F000F0
FFFFF0
FFFFF0
FFFFF0
E00000
F00000
F00000
F00000
F00000
780000
7C0020
3F01E0
1FFFE0
07FFE0
01FF00
ENDCHAR
STARTCHAR 00E9
ENCODING 233
SWIDTH 600 0
DWIDTH 25 0
BBX 20 34 3 0
BITMAP
000F00
000F00
001E00
003C00
003800
007000
00E000
01E000
000000
000000
01FC00
07FF00
1FFF80
3F07C0
3C03C0
7801E0
F801E0
F000E0
F000F0
F000F0
FFFFF0
FFFFF0
FFFFF0
E00000
F00000
F00000
F00000
F00000
780000
7C0020
3F01E0
1FFFE0
07FFE0
01FF00
ENDCHAR
STARTCHAR 00EA
ENCODING 234
SWIDTH 600 0
DWIDTH 25 0
BBX 20 34 3 0
BITMAP
00F000
01F000
01F800
03BC00
039C00
070E00
0E0700
0E0700
000000
000000
01FC00
07FF00
1FFF80
3F07C0
3C03C0
7801E0
F801E0
F000E0
F000F0
F000F0
FFFFF0
FFFFF0
FFFFF0
E00000
F00000
F00000
F00000
F00000
780000
7C0020
3F01E0
1FFFE0
07FFE0
01FF00
ENDCHAR
STARTCHAR 00EB
ENCODING 235
SWIDTH 600 0
DWIDTH 25 0
BBX 20 32 3 0
BITMAP
0F0F00
0F0F00
0F0F00
0F0F00
000000
000000
000000
000000
01FC00
07FF00
1FFF80
3F07C0
3C03C0
7801E0
F801E0
F000E0
F000F0
F000F0
FFFFF0
FFFFF0
FFFFF0
E00000
F00000
F00000
F00000
F00000
780000
7C0020
3F01E0
1FFFE0
07FFE0
01FF00
ENDCHAR
STARTCHAR 00EC
ENCODING 236
SWIDTH 600 0
DWIDTH 25 0
BBX 18 34 4 0
BITMAP
3C0000
1E0000
0F0000
070000
078000
03C000
01C000
00E000
000000
000000
000000
7FE000
7FE000
7FE000
01E000
01E000
01E000
01E000
01E000
01E000
01E000
01E000
01E000
01E000
01E000
01E000
01E000
01E000
01E000
01E000
01E000
FFFFC0
FFFFC0
FFFFC0
ENDCHAR
STARTCHAR 00ED
ENCODING 237
SWIDTH 600 0
DWIDTH 25 0
BBX 18 34 4 0
BITMAP
001E00
003C00
003800
007800
00F000
00E000
01C000
038000
000000
000000
000000
7FE000
7FE000
7FE000
01E000
01E000
01E000
01E000
01E000
01E000
01E000
01E000
01E000
01E000
01E000
01E000
01E000
01E000
01E000
01E000
01E000
FFFFC0
FFFFC0
FFFFC0
ENDCHAR
STARTCHAR 00EE
ENCODING 238
SWIDTH 600 0
DWIDTH 25 0
BBX 18 34 4 0
BITMAP
01C000
03E000
03F000
077000
0E3800
0E1C00
1C1C00
380E00
000000
000000
000000
7FE000
7FE000
7FE000
01E000
01E000
01E000
01E000
01E000
01E000
01E000
01E000
01E000
01E000
01E000
01E000
01E000
01E000
01E000
01E000
01E000
FFFFC0
FFFFC0
FFFFC0
ENDCHAR
STARTCHAR 00EF
ENCODING 239
SWIDTH 600 0
DWIDTH 25 0
BBX 18 32 4 0
BITMAP
1E1E00
1E1E00
1E1E00
1E1E00
000000
000000
000000
000000
000000
7FE000
7FE000
7FE000
01E000
01E000
01E000
01E000
01E000
01E000
01E000
01E000
01E000
01E000
01E000
01E000
01E000
01E000
01E000
01E000
01E000
FFFFC0
FFFFC0
FFFFC0
ENDCHAR
STARTCHAR 00F0
ENCODING 240
SWIDTH 600 0
DWIDTH 25 0
BBX 19 32 3 0
BITMAP
0F0000
0F8100
07CF80
03FF00
03F800
0FF000
3F7800
387C00
003E00
001E00
03FF00
0FFF80
1FFF80
3E07C0
7C03C0
7803E0
F801E0
F001E0
F001E0
F001E0
F001E0
F001E0
F001E0
F001E0
F001E0
F801E0
7803C0
7C07C0
3E0F80
1FFF00
0FFE00
03F800
ENDCHAR
STARTCHAR 00F1
ENCODING 241
SWIDTH 600 0
DWIDTH 25 0
BBX 18 33 4 0
BITMAP
0F0600
1F8600
3FCE00
38FE00
38FC00
303800
000000
000000
000000
00F800
F3FE00
F7FF00
FE1F80
FC0780
F80780
F00780
F00380
F003C0
F003C0
F003C0
F003C0
F003C0
F003C0
F003C0
F003C0
F003C0
F003C0
F003C0
F003C0
F003C0
F003C0
F003C0
F003C0
ENDCHAR
STARTCHAR 00F2
ENCODING 242
SWIDTH 600 0
DWIDTH 25 0
BBX 19 34 3 0
BITMAP
1E0000
0F0000
078000
038000
03C000
01E000
00E000
007000
000000
000000
03F800
0FFE00
1FFF00
3E0F80
7C07C0
7803C0
7801E0
F001E0
F001E0
F001E0
F001E0
F001E0
F001E0
F001E0
F001E0
F001E0
F001E0
7801E0
7803C0
7C07C0
3E0F80
1FFF00
0FFE00
03F800
ENDCHAR
STARTCHAR 00F3
ENCODING 243
SWIDTH 600 0
DWIDTH 25 0
BBX 19 34 3 0
BITMAP
000F00
001E00
001C00
003C00
007800
007000
00E000
01C000
000000
000000
03F800
0FFE00
1FFF00
3E0F80
7C07C0
7803C0
7801E0
F001E0
F001E0
F001E0
F001E0
F001E0
F001E0
F001E0
F001E0
F001E0
F001E0
7801E0
7803C0
7C07C0
3E0F80
1FFF00
0FFE00
03F800
ENDCHAR
STARTCHAR 00F4
ENCODING 244
SWIDTH 600 0
DWIDTH 25 0
BBX 19 34 3 0
BITMAP
00E000
01F000
01F800
03B800
071C00
070E00
0E0E00
1C0700
000000
000000
03F800
0FFE00
1FFF00
3E0F80
7C07C0
7803C0
7801E0
F001E0
F001E0
F001E0
F001E0
F001E0
F001E0
F001E0
F001E0
F001E0
F001E0
7801E0
7803C0
7C07C0
3E0F80
1FFF00
0FFE00
03F800
ENDCHAR
STARTCHAR 00F5
ENCODING 245
SWIDTH 600 0
DWIDTH 25 0
BBX 19 33 3 0
BITMAP
078300
0FC300
1FE700
1C7F00
1C7E00
181C00
000000
000000
000000
03F800
0FFE00
1FFF00
3E0F80
7C07C0
7803C0
7801E0
F001E0
F001E0
F001E0
F001E0
F001E0
F001E0
F001E0
F001E0
F001E0
F001E0
7801E0
7803C0
7C07C0
3E0F80
1FFF00
0FFE00
03F800
ENDCHAR
STARTCHAR 00F6
ENCODING 246
SWIDTH 600 0
DWIDTH 25 0
BBX 19 32 3 0
BITMAP
0F0F00
0F0F00
0F0F00
0F0F00
000000
000000
000000
000000
03F800
0FFE00
1FFF00
3E0F80
7C07C0
7803C0
7801E0
F001E0
F001E0
F001E0
F001E0
F001E0
F001E0
F001E0
F001E0
F001E0
F001E0
7801E0
7803C0
7C07C0
3E0F80
1FFF00
0FFE00
03F800
ENDCHAR
STARTCHAR 00F7
ENCODING 247
SWIDTH 600 0
DWIDTH 25 0
BBX 21 19 2 3
BITMAP
00F800
00F800
00F800
00F800
00F800
000000
000000
000000
FFFFF8
FFFFF8
FFFFF8
000000
000000
000000
00F800
00F800
00F800
00F800
00F800
ENDCHAR
STARTCHAR 00F8
ENCODING 248
SWIDTH 600 0
DWIDTH 25 0
BBX 23 26 1 -1
BITMAP
00000C
00FE0E
03FF9C
07FFF8
0F83F0
1F01F0
1E01F0
1E03F8
3C03F8
3C0778
3C0E78
3C1C78
3C3C78
3C3878
3C7078
3CE078
3DC078
3FC078
3F8078
1F00F0
1F01F0
1F83E0
3FFFC0
73FF80
F0FE00
600000
ENDCHAR
STARTCHAR 00F9
ENCODING 249
SWIDTH 600 0
DWIDTH 25 0
BBX 18 34 4 0
BITMAP
3C0000
1E0000
0F0000
070000
078000
03C000
01C000
00E000
000000
000000
000000
F003C0
F003C0
F003C0
F003C0
F003C0
F003C0
F003C0
F003C0
F003C0
F003C0
F003C0
F003C0
F003C0
F003C0
F003C0
F007C0
F007C0
F007C0
780FC0
7C1FC0
7FFBC0
3FF3C0
0FC3C0
ENDCHAR
STARTCHAR 00FA
ENCODING 250
SWIDTH 600 0
DWIDTH 25 0
BBX 18 34 4 0
BITMAP
001E00
003C00
003800
007800
00F000
00E000
01C000
038000
000000
000000
000000
F003C0
F003C0
F003C0
F003C0
F003C0
F003C0
F003C0
F003C0
F003C0
F003C0
F003C0
F003C0
F003C0
F003C0
F003C0
F007C0
F007C0
F007C0
780FC0
7C1FC0
7FFBC0
3FF3C0
0FC3C0
ENDCHAR
STARTCHAR 00FB
ENCODING 251
SWIDTH 600 0
DWIDTH 25 0
BBX 18 34 4 0
BITMAP
01C000
03E000
03F000
077000
0E3800
0E1C00
1C1C00
380E00
000000
000000
000000
F003C0
F003C0
F003C0
F003C0
F003C0
F003C0
F003C0
F003C0
F003C0
F003C0
F003C0
F003C0
F003C0
F003C0
F003C0
F007C0
F007C0
F007C0
780FC0
7C1FC0
7FFBC0
3FF3C0
0FC3C0
ENDCHAR
STARTCHAR 00FC
ENCODING 252
SWIDTH 600 0
DWIDTH 25 0
BBX 18 32 4 0
BITMAP
1E1E00
1E1E00
1E1E00
1E1E00
000000
000000
000000
000000
000000
F003C0
F003C0
F003C0
F003C0
F003C0
F003C0
F003C0
F003C0
F003C0
F003C0
F003C0
F003C0
F003C0
F003C0
F003C0
F007C0
F007C0
F007C0
780FC0
7C1FC0
7FFBC0
3FF3C0
0FC3C0
ENDCHAR
STARTCHAR 00FD
ENCODING 253
SWIDTH 600 0
DWIDTH 25 0
BBX 21 43 2 -9
BITMAP
000780
000F00
000E00
001E00
003C00
003800
007000
00E000
000000
000000
000000
F00078
780078
780078
7800F0
3C00F0
3C00F0
1E01E0
1E01E0
1E03C0
0F03C0
0F03C0
070780
078780
078780
03CF00
03CF00
01DE00
01FE00
01FE00
00FC00
00FC00
00F800
007800
007800
00F000
00F000
00F000
01E000
03E000
3FC000
3F8000
3E0000
ENDCHAR
STARTCHAR 00FE
ENCODING 254
SWIDTH 600 0
DWIDTH 25 0
BBX 19 41 4 -9
BITMAP
F00000
F00000
F00000
F00000
F00000
F00000
F00000
F00000
F1F800
F7FE00
FFFF00
FE1F80
FC0780
F807C0
F803C0
F003C0
F003C0
F001E0
F001E0
F001E0
F001E0
F001E0
F001E0
F003C0
F003C0
F003C0
F807C0
FC0780
FE1F80
FFFF00
F7FE00
F1F800
F00000
F00000
F00000
F00000
F00000
F00000
F00000
F00000
F00000
ENDCHAR
STARTCHAR 00FF
ENCODING 255
SWIDTH 600 0
DWIDTH 25 0
BBX 21 41 2 -9
BITMAP
078780
078780
078780
078780
000000
000000
000000
000000
000000
F00078
780078
780078
7800F0
3C00F0
3C00F0
1E01E0
1E01E0
1E03C0
0F03C0
0F03C0
070780
078780
078780
03CF00
03CF00
01DE00
01FE00
01FE00
00FC00
00FC00
00F800
007800
007800
00F000
00F000
00F000
01E000
03E000
3FC000
3F8000
3E0000
ENDCHAR
STARTCHAR 0106
ENCODING 262
SWIDTH 600 0
DWIDTH 25 0
BBX 19 39 3 0
BITMAP
000F00
001E00
001C00
003800
007000
000000
000000
007F00
03FFC0
07FFE0
0F81E0
1F0060
3E0020
3C0000
7C0000
780000
780000
F80000
F80000
F00000
F00000
F00000
F00000
F00000
F00000
F00000
F00000
F80000
F80000
780000
780000
7C0000
3C0000
3E0020
1F0060
0F81E0
07FFE0
03FFC0
00FF00
ENDCHAR
STARTCHAR 0107
ENCODING 263
SWIDTH 600 0
DWIDTH 25 0
BBX 18 34 4 0
BITMAP
000780
000F00
000E00
001C00
003C00
007800
007000
00E000
000000
000000
01FE00
07FF80
0FFFC0
1F03C0
3E00C0
7C0040
780000
780000
F00000
F00000
F00000
F00000
F00000
F00000
F00000
F00000
780000
780000
7C0000
3E0040
1F81C0
0FFFC0
07FFC0
01FF00
ENDCHAR
STARTCHAR 010C
ENCODING 268
SWIDTH 600 0
DWIDTH 25 0
BBX 19 39 3 0
BITMAP
038380
03C700
01EF00
00FE00
007C00
000000
000000
007F00
03FFC0
07FFE0
0F81E0
1F0060
3E0020
3C0000
7C0000
780000
780000
F80000
F80000
F00000
F00000
F00000
F00000
F00000
F00000
F00000
F00000
F80000
F80000
780000
780000
7C0000
3C0000
3E0020
1F0060
0F81E0
07FFE0
03FFC0
00FF00
ENDCHAR
STARTCHAR 010D
ENCODING 269
SWIDTH 600 0
DWIDTH 25 0
BBX 18 34 4 0
BITMAP
0E0380
070700
038E00
038E00
01DC00
01FC00
00F800
007000
000000
000000
01FE00
07FF80
0FFFC0
1F03C0
3E00C0
7C0040
780000
780000
F00000
F00000
F00000
F00000
F00000
F00000
F00000
F00000
780000
780000
7C0000
3E0040
1F81C0
0FFFC0
07FFC0
01FF00
ENDCHAR
STARTCHAR 0111
ENCODING 273
SWIDTH 600 0
DWIDTH 25 0
BBX 22 32 3 0
BITMAP
0001C0
0001C0
00FFFC
00FFFC
00FFFC
0001C0
0001C0
0001C0
07E1C0
0FF9C0
3FFDC0
3E1FC0
7C07C0
7807C0
F003C0
F003C0
F003C0
F003C0
F001C0
F001C0
F001C0
F001C0
F003C0
F003C0
F003C0
F003C0
7807C0
7807C0
3E1FC0
3FFDC0
0FF9C0
07E1C0
ENDCHAR
STARTCHAR 011E
ENCODING 286
SWIDTH 600 0
DWIDTH 25 0
BBX 21 39 2 0
BITMAP
0E0380
0F0780
07FF00
03FF00
00FC00
000000
000000
007F00
03FFE0
07FFF0
0FC1F0
1F0030
3E0010
3C0000
7C0000
780000
780000
780000
F80000
F80000
F80000
F00000
F00000
F00FF8
F00FF8
F00FF8
F80078
F80078
780078
780078
780078
7C0078
3C0078
3E0078
1F0078
0FC1F8
07FFF0
03FFE0
007F00
ENDCHAR
STARTCHAR 011F
ENCODING 287
SWIDTH 600 0
DWIDTH 25 0
BBX 18 43 3 -9
BITMAP
1C0700
1C0700
0E0F00
0FFE00
07FC00
01F800
000000
000000
000000
000000
07E000
0FF9C0
1FFDC0
3E1FC0
7C07C0
7807C0
F003C0
F003C0
F003C0
F003C0
F001C0
F001C0
F001C0
F001C0
F003C0
F003C0
F003C0
F003C0
7807C0
7C07C0
3E1DC0
1FFDC0
0FF9C0
07E1C0
0003C0
0003C0
0003C0
0003C0
200780
3C0F80
3FFF00
3FFE00
0FF000
ENDCHAR
STARTCHAR 0130
ENCODING 304
SWIDTH 600 0
DWIDTH 25 0
BBX 17 39 4 0
BITMAP
01E000
01E000
01E000
01E000
000000
000000
000000
000000
FFFF80
FFFF80
FFFF80
01E000
01E000
01E000
01E000
01E000
01E000
01E000
01E000
01E000
01E000
01E000
01E000
01E000
01E000
01E000
01E000
01E000
01E000
01E000
01E000
01E000
01E000
01E000
01E000
01E000
FFFF80
FFFF80
FFFF80
ENDCHAR
STARTCHAR 0131
ENCODING 305
SWIDTH 600 0
DWIDTH 25 0
BBX 18 23 4 0
BITMAP
7FE000
7FE000
7FE000
01E000
01E000
01E000
01E000
01E000
01E000
01E000
01E000
01E000
01E000
01E000
01E000
01E000
01E000
01E000
01E000
01E000
FFFFC0
FFFFC0
FFFFC0
ENDCHAR
STARTCHAR 0141
ENCODING 321
SWIDTH 600 0
DWIDTH 25 0
BBX 23 31 0 0
BITMAP
0F8000
0F8000
0F8000
0F8000
0F8000
0F8000
0F8000
0F8000
0F8000
0F8700
0F8F00
0F9F00
0FFC00
0FF800
0FE000
0FC000
0F8000
3F8000
7F8000
FF8000
6F8000
4F8000
0F8000
0F8000
0F8000
0F8000
0F8000
0F8000
0FFFFE
0FFFFE
0FFFFE
ENDCHAR
STARTCHAR 0142
ENCODING 322
SWIDTH 600 0
DWIDTH 25 0
BBX 19 32 2 0
BITMAP
7FE000
7FE000
7FE000
01E000
01E000
01E000
01E000
01E040
01E0C0
01E1E0
01E7C0
01EF80
01FE00
01FC00
01F000
03E000
0FE000
1FE000
3DE000
F9E000
F1E000
41E000
01E000
01E000
01E000
01E000
00E000
00F000
00F800
007FE0
003FE0
000FE0
ENDCHAR
STARTCHAR 0152
ENCODING 338
SWIDTH 600 0
DWIDTH 25 0
BBX 24 31 1 0
BITMAP
01FFFF
07FFFF
0FFFFF
1F0F00
3E0F00
3C0F00
3C0F00
780F00
780F00
780F00
780F00
780F00
780F00
F80FFE
F80FFE
F80FFE
F80F00
780F00
780F00
780F00
780F00
780F00
780F00
780F00
3C0F00
3C0F00
3E0F00
1F0F00
0FFFFF
07FFFF
01FFFF
ENDCHAR
STARTCHAR 0153
ENCODING 339
SWIDTH 600 0
DWIDTH 25 0
BBX 25 24 0 0
BITMAP
07E1F800
1FF3FE00
3FFFFE00
3C7F0F00
783F0700
701E0700
701E0780
701E0780
F01E0380
F01E0780
F01FFF80
F01FFF80
F01FFF80
F01E0000
F01E0000
F01E0000
701E0000
701E0000
701E0000
783F0100
3C3F8300
3FFFFF00
1FF3FF00
07C0FE00
ENDCHAR
STARTCHAR 015E
ENCODING 350
SWIDTH 600 0
DWIDTH 25 0
BBX 20 40 3 -8
BITMAP
03FC00
0FFF80
1FFFC0
3E07C0
7801C0
780040
F00000
F00000
F00000
F00000
F00000
F80000
FC0000
7F8000
3FF800
1FFE00
07FF80
00FFC0
000FC0
0003E0
0001E0
0001E0
0001E0
0000F0
0001E0
0001E0
8001E0
E003E0
F80FC0
FFFF80
7FFF00
07F800
007000
003800
001800
001800
043C00
07F800
07F800
07F000
ENDCHAR
STARTCHAR 015F
ENCODING 351
SWIDTH 600 0
DWIDTH 25 0
BBX 17 32 4 -8
BITMAP
07FC00
1FFF00
3FFF00
7C0700
780100
700000
F00000
F00000
780000
7E0000
7FE000
3FFC00
0FFE00
00FF00
001F80
000780
000780
000780
000780
C00F80
F01F00
FFFE00
FFFC00
1FF000
00E000
007000
003000
003000
087800
0FF000
0FF000
0FE000
ENDCHAR
STARTCHAR 0160
ENCODING 352
SWIDTH 600 0
DWIDTH 25 0
BBX 20 39 3 0
BITMAP
0E0600
070E00
03BC00
03F800
01F000
000000
000000
03FC00
0FFF80
1FFFC0
3E07C0
7801C0
780040
F00000
F00000
F00000
F00000
F00000
F80000
FC0000
7F8000
3FF800
1FFE00
07FF80
00FFC0
000FC0
0003E0
0001E0
0001E0
0001E0
0000F0
0001E0
0001E0
8001E0
E003E0
F80FC0
FFFF80
7FFF00
07F800
ENDCHAR
STARTCHAR 0161
ENCODING 353
SWIDTH 600 0
DWIDTH 25 0
BBX 17 34 4 0
BITMAP
380E00
1C1C00
0E1C00
0E3800
077000
03F000
03E000
01C000
000000
000000
07FC00
1FFF00
3FFF00
7C0700
780100
700000
F00000
F00000
780000
7E0000
7FE000
3FFC00
0FFE00
00FF00
001F80
000780
000780
000780
000780
C00F80
F01F00
FFFE00
FFFC00
1FF000
ENDCHAR
STARTCHAR 0178
ENCODING 376
SWIDTH 600 0
DWIDTH 25 0
BBX 23 39 1 0
BITMAP
03C3C0
03C3C0
03C3C0
03C3C0
000000
000000
000000
000000
F0001E
78003E
7C003C
3C007C
3E0078
1E00F0
1F00F0
0F01E0
0783E0
0783C0
03C7C0
03C780
01EF00
01FF00
00FE00
007E00
007C00
003C00
003C00
003C00
003C00
003C00
003C00
003C00
003C00
003C00
003C00
003C00
003C00
003C00
003C00
ENDCHAR
STARTCHAR 017D
ENCODING 381
SWIDTH 600 0
DWIDTH 25 0
BBX 21 39 3 0
BITMAP
0E0600
070E00
03BC00
03F800
01F000
000000
000000
000000
7FFFF8
7FFFF8
7FFFF8
0001F0
0001F0
0003E0
0003C0
0007C0
000F80
000F00
001F00
003E00
003E00
007C00
007800
00F800
01F000
01E000
03E000
07C000
078000
0F8000
1F0000
1E0000
3E0000
3C0000
7C0000
F80000
FFFFF8
FFFFF8
FFFFF8
ENDCHAR
STARTCHAR 017E
ENCODING 382
SWIDTH 600 0
DWIDTH 25 0
BBX 17 34 4 0
BITMAP
380E00
1C1C00
0E1C00
0E3800
077000
03F000
03E000
01C000
000000
000000
000000
7FFF80
7FFF80
7FFF80
000780
000F80
001F00
001E00
003C00
007800
00F800
01F000
01E000
03C000
078000
0F8000
1F0000
1E0000
3C0000
780000
F80000
FFFF80
FFFF80
FFFF80
ENDCHAR
STARTCHAR 0192
ENCODING 402
SWIDTH 600 0
DWIDTH 25 0
BBX 25 41 0 -9
BITMAP
00003E00
0000FF80
0001FF80
0003E080
0003C000
00078000
00078000
00078000
00070000
00070000
00070000
000F0000
000F0000
000F0000
000F0000
03FFFC00
03FFFC00
03FFFC00
001E0000
001E0000
001E0000
001C0000
001C0000
003C0000
003C0000
003C0000
003C0000
003C0000
00380000
00780000
00780000
00780000
00780000
00700000
00F00000
00F00000
01E00000
83E00000
FFC00000
FF800000
7E000000
ENDCHAR
STARTCHAR 02C6
ENCODING 710
SWIDTH 600 0
DWIDTH 25 0
BBX 13 8 6 26
BITMAP
0700
0F80
0FC0
1DC0
38E0
3870
7070
E038
ENDCHAR
STARTCHAR 02C7
ENCODING 711
SWIDTH 600 0
DWIDTH 25 0
BBX 13 8 6 26
BITMAP
E038
7070
3870
38E0
1DC0
0FC0
0F80
0700
ENDCHAR
STARTCHAR 02D8
ENCODING 728
SWIDTH 600 0
DWIDTH 25 0
BBX 13 6 6 28
BITMAP
E038
E038
7078
7FF0
3FE0
0FC0
ENDCHAR
STARTCHAR 02D9
ENCODING 729
SWIDTH 600 0
DWIDTH 25 0
BBX 4 4 11 28
BITMAP
F0
F0
F0
F0
ENDCHAR
STARTCHAR 02DA
ENCODING 730
SWIDTH 600 0
DWIDTH 25 0
BBX 11 11 7 26
BITMAP
1F00
3FC0
7FC0
F1E0
E0E0
E060
E0E0
F0E0
7FC0
3FC0
1F00
ENDCHAR
STARTCHAR 02DB
ENCODING 731
SWIDTH 600 0
DWIDTH 25 0
BBX 7 8 9 -8
BITMAP
70
60
E0
C0
E2
FE
FE
7E
ENDCHAR
STARTCHAR 02DC
ENCODING 732
SWIDTH 600 0
DWIDTH 25 0
BBX 13 6 6 27
BITMAP
3C18
7E18
FF38
E3F8
E3F0
C0E0
ENDCHAR
STARTCHAR 02DD
ENCODING 733
SWIDTH 600 0
DWIDTH 25 0
BBX 14 8 7 26
BITMAP
0E1C
1E3C
1C78
3870
38F0
70E0
71C0
E1C0
ENDCHAR
STARTCHAR 03A9
ENCODING 937
SWIDTH 600 0
DWIDTH 25 0
BBX 22 30 2 0
BITMAP
01FC00
07FF00
0FFF80
1F07C0
3E03E0
3C01F0
7800F0
7800F0
F00078
F00078
F00078
F00078
F00078
F00078
F00078
F00078
F00078
F00078
F00078
F00078
780078
7800F0
7800F0
3C01E0
1E01E0
1E03C0
0F0780
FF8FFC
FF8FFC
FF8FFC
ENDCHAR
STARTCHAR 03C0
ENCODING 960
SWIDTH 600 0
DWIDTH 25 0
BBX 22 23 2 0
BITMAP
FFFFFC
FFFFFC
FFFFFC
1C01E0
1C01E0
1C01E0
1C01E0
1C01E0
1C01E0
1C01E0
1C01E0
1C01E0
1C01E0
1C01E0
1C01E0
1C01E0
1C01E0
1C01E0
1C01E0
1C01E0
1C01FC
1C00FC
1C007C
ENDCHAR
STARTCHAR 2013
ENCODING 8211
SWIDTH 600 0
DWIDTH 25 0
BBX 25 3 0 10
BITMAP
FFFFFF80
FFFFFF80
FFFFFF80
ENDCHAR
STARTCHAR 2014
ENCODING 8212
SWIDTH 600 0
DWIDTH 25 0
BBX 25 3 0 10
BITMAP
FFFFFF80
FFFFFF80
FFFFFF80
ENDCHAR
STARTCHAR 2018
ENCODING 8216
SWIDTH 600 0
DWIDTH 25 0
BBX 8 12 9 20
BITMAP
0F
0E
1E
1E
3E
3C
7C
7C
FC
FC
FC
FC
ENDCHAR
STARTCHAR 2019
ENCODING 8217
SWIDTH 600 0
DWIDTH 25 0
BBX 7 12 10 20
BITMAP
7E
7E
7E
7E
7E
7C
78
78
F0
F0
E0
E0
ENDCHAR
STARTCHAR 201A
ENCODING 8218
SWIDTH 600 0
DWIDTH 25 0
BBX 7 12 8 -6
BITMAP
3E
3E
3E
3E
3E
3E
3C
7C
78
78
70
F0
ENDCHAR
STARTCHAR 201C
ENCODING 8220
SWIDTH 600 0
DWIDTH 25 0
BBX 17 12 4 20
BITMAP
0E0380
0E0780
1E0F00
1E0F00
3C1F00
3C1F00
7C3E00
FC3E00
FC3E00
FC3E00
FC3E00
FC3E00
ENDCHAR
STARTCHAR 201D
ENCODING 8221
SWIDTH 600 0
DWIDTH 25 0
BBX 17 12 4 20
BITMAP
3F0F80
3F0F80
3F0F80
3F0F80
3E0F80
3E1F00
3C1F00
7C1E00
781E00
783C00
703C00
F03800
ENDCHAR
STARTCHAR 201E
ENCODING 8222
SWIDTH 600 0
DWIDTH 25 0
BBX 17 12 4 -6
BITMAP
3F0F80
3F0F80
3F0F80
3F0F80
3E0F80
3E1F00
3C1F00
7C1E00
781E00
783C00
703C00
F03800
ENDCHAR
STARTCHAR 2020
ENCODING 8224
SWIDTH 600 0
DWIDTH 25 0
BBX 19 35 3 -4
BITMAP
00E000
00E000
00E000
00E000
00E000
00E000
00E000
00E000
00E000
FFFFE0
FFFFE0
FFFFE0
00E000
00E000
00E000
00E000
00E000
00E000
00E000
00E000
00E000
00E000
00E000
00E000
00E000
00E000
00E000
00E000
00E000
00E000
00E000
00E000
00E000
00E000
00E000
ENDCHAR
STARTCHAR 2021
ENCODING 8225
SWIDTH 600 0
DWIDTH 25 0
BBX 19 35 3 -4
BITMAP
00E000
00E000
00E000
00E000
00E000
00E000
00E000
00E000
00E000
FFFFE0
FFFFE0
FFFFE0
00E000
00E000
00E000
00E000
00E000
00E000
00E000
00E000
00E000
00E000
00E000
FFFFE0
FFFFE0
FFFFE0
00E000
00E000
00E000
00E000
00E000
00E000
00E000
00E000
00E000
ENDCHAR
STARTCHAR 2022
ENCODING 8226
SWIDTH 600 0
DWIDTH 25 0
BBX 12 12 7 10
BITMAP
1F00
3FC0
7FE0
FFE0
FFF0
FFF0
FFF0
FFF0
FFE0
7FE0
3FC0
1F00
ENDCHAR
STARTCHAR 2026
ENCODING 8230
SWIDTH 600 0
DWIDTH 25 0
BBX 22 6 2 0
BITMAP
F8F8FC
F8F8FC
F8F8FC
F8F8FC
F8F8FC
F8F8FC
ENDCHAR
STARTCHAR 2030
ENCODING 8240
SWIDTH 600 0
DWIDTH 25 0
BBX 25 29 0 0
BITMAP
1F000000
3FC00000
7FE00000
F0E00000
E0700000
E0700000
E0700000
E0700400
F0E01E00
7FE0F800
3FC7E000
1F1F0000
00FC0000
03E00000
1F000000
7C000000
60000000
0F807C00
1FE1FE00
3FF1FF00
7873C780
70330380
603B0180
603B0180
70330380
7873C780
3FF1FF00
1FE1FE00
0F807C00
ENDCHAR
STARTCHAR 2039
ENCODING 8249
SWIDTH 600 0
DWIDTH 25 0
BBX 10 19 7 3
BITMAP
0040
00C0
01C0
03C0
0780
0F00
3E00
7C00
F800
F000
F800
7C00
3E00
0F00
0780
03C0
01C0
00C0
0040
ENDCHAR
STARTCHAR 203A
ENCODING 8250
SWIDTH 600 0
DWIDTH 25 0
BBX 9 19 9 3
BITMAP
8000
8000
C000
F000
F800
7C00
3E00
0F00
0780
0380
0780
0F00
3E00
7C00
F800
F000
C000
8000
8000
ENDCHAR
STARTCHAR 20AC
ENCODING 8364
SWIDTH 600 0
DWIDTH 25 0
BBX 21 32 1 0
BITMAP
001FC0
007FF0
01FFF8
03F078
03C018
078008
078000
0F0000
0F0000
0F0000
1F0000
7FFF80
FFFF80
FFFF80
1E0000
1E0000
1E0000
1E0000
7FFE00
FFFC00
FFFC00
1F0000
0F0000
0F0000
0F0000
078000
078008
03C018
03F078
01FFF8
007FF0
001FC0
ENDCHAR
STARTCHAR 2122
ENCODING 8482
SWIDTH 600 0
DWIDTH 25 0
BBX 23 12 0 19
BITMAP
FF9C1E
FF9E1E
1C1F3E
1C1B36
1C1BE6
1C19E6
1C18C6
1C18C6
1C1806
1C1806
1C1806
1C1806
ENDCHAR
STARTCHAR 2202
ENCODING 8706
SWIDTH 600 0
DWIDTH 25 0
BBX 17 27 4 0
BITMAP
01F000
07FC00
0F8E00
0F0700
000300
000380
000380
000380
000380
000380
07C380
1FF380
3E1780
7C0F80
780F80
F80F80
F00F80
F00F80
F00F00
F00F00
F00F00
F00E00
F01E00
701C00
303800
187000
0FC000
ENDCHAR
STARTCHAR 2206
ENCODING 8710
SWIDTH 600 0
DWIDTH 25 0
BBX 25 29 0 0
BITMAP
003E0000
003E0000
003F0000
007F0000
007F0000
00F78000
00F78000
00F3C000
01E3C000
01E3C000
01C1E000
03C1E000
03C0E000
0380F000
0780F000
07807000
0F007800
0F007800
0F003C00
1E003C00
1E003C00
1E001E00
3C001E00
3C001E00
3C000F00
78000F00
7FFFFF80
FFFFFF80
FFFFFF80
ENDCHAR
STARTCHAR 220F
ENCODING 8719
SWIDTH 600 0
DWIDTH 25 0
BBX 19 40 3 -9
BITMAP
FFFFE0
FFFFE0
FFFFE0
E000E0
E000E0
E000E0
E000E0
E000E0
E000E0
E000E0
E000E0
E000E0
E000E0
E000E0
E000E0
E000E0
E000E0
E000E0
E000E0
E000E0
E000E0
E000E0
E000E0
E000E0
E000E0
E000E0
E000E0
E000E0
E000E0
E000E0
E000E0
E000E0
E000E0
E000E0
E000E0
E000E0
E000E0
E000E0
E000E0
E000E0
ENDCHAR
STARTCHAR 2211
ENCODING 8721
SWIDTH 600 0
DWIDTH 25 0
BBX 19 40 3 -9
BITMAP
FFFFE0
FFFFE0
FFFFE0
700000
380000
380000
1C0000
0E0000
0E0000
070000
078000
038000
01C000
01E000
00E000
007000
007800
003800
001C00
001C00
003C00
003800
007800
007000
00E000
01E000
01C000
03C000
038000
070000
0F0000
0E0000
1E0000
1C0000
380000
780000
700000
FFFFE0
FFFFE0
FFFFE0
ENDCHAR
STARTCHAR 2212
ENCODING 8722
SWIDTH 600 0
DWIDTH 25 0
BBX 21 3 2 11
BITMAP
FFFFF8
FFFFF8
FFFFF8
ENDCHAR
STARTCHAR 2215
ENCODING 8725
SWIDTH 600 0
DWIDTH 25 0
BBX 20 35 2 -4
BITMAP
0000F0
0000E0
0001E0
0001E0
0003C0
0003C0
000780
000780
000F00
000F00
001E00
001E00
003C00
003C00
003800
007800
007800
00F000
00F000
01E000
01E000
03C000
03C000
078000
078000
0F0000
0F0000
0E0000
1E0000
1E0000
3C0000
3C0000
780000
780000
F00000
ENDCHAR
STARTCHAR 2219
ENCODING 8729
SWIDTH 600 0
DWIDTH 25 0
BBX 5 6 10 12
BITMAP
F8
F8
F8
F8
F8
F8
ENDCHAR
STARTCHAR 221A
ENCODING 8730
SWIDTH 600 0
DWIDTH 25 0
BBX 23 36 1 -1
BITMAP
00000E
00000E
00000E
00001C
00001C
00001C
000038
000038
000038
000070
000070
000070
0000E0
0000E0
0000E0
0001C0
1C01C0
FE01C0
7E0380
6E0380
070380
070780
070700
038700
038700
038E00
018E00
01CE00
01DC00
01DC00
00FC00
00F800
00F800
007800
007000
007000
ENDCHAR
STARTCHAR 221E
ENCODING 8734
SWIDTH 600 0
DWIDTH 25 0
BBX 23 16 1 5
BITMAP
1F01F0
3F83F8
7FC7FC
71EF1C
E0EE0E
E07C06
E07C06
C03806
C03806
C07C06
E07C0E
E0EE0E
71EF1E
7FC7FC
3F83F8
0F01F0
ENDCHAR
STARTCHAR 222B
ENCODING 8747
SWIDTH 600 0
DWIDTH 25 0
BBX 20 39 3 -7
BITMAP
0007C0
000FE0
0019F0
0039E0
0039E0
007000
007000
007000
007000
00F000
00F000
00F000
00F000
00F000
00F000
00F000
00F000
00F000
00F000
00F000
00F000
00F000
00F000
01E000
01E000
01E000
01E000
01E000
01E000
01E000
01E000
01C000
01C000
01C000
F18000
F38000
FB0000
FE0000
7C0000
ENDCHAR
STARTCHAR 2248
ENCODING 8776
SWIDTH 600 0
DWIDTH 25 0
BBX 21 13 2 6
BITMAP
1F8008
7FE008
FFF838
E0FFF8
C01FF0
0007C0
000000
1F8008
7FE008
FFF838
E0FFF8
801FF0
0007C0
ENDCHAR
STARTCHAR 2260
ENCODING 8800
SWIDTH 600 0
DWIDTH 25 0
BBX 21 23 2 2
BITMAP
000020
000070
0000F0
0001E0
0003E0
0007C0
FFFFF8
FFFFF8
FFFFF8
003C00
007C00
00F800
00F000
01E000
FFFFF8
FFFFF8
FFFFF8
1F0000
1E0000
3C0000
780000
700000
300000
ENDCHAR
STARTCHAR 2264
ENCODING 8804
SWIDTH 600 0
DWIDTH 25 0
BBX 21 22 2 0
BITMAP
000008
000078
0007F8
003FF8
01FFE0
0FFE00
7FF000
FF0000
F80000
FF8000
7FF000
0FFE00
01FFE0
003FF8
0007F8
000078
000008
000000
000000
FFFFF8
FFFFF8
FFFFF8
ENDCHAR
STARTCHAR 2265
ENCODING 8805
SWIDTH 600 0
DWIDTH 25 0
BBX 21 22 2 0
BITMAP
800000
F80000
FF0000
FFE000
3FFC00
03FF80
007FF8
0007F8
0000F8
0007F8
007FF8
03FF80
3FFC00
FFE000
FF0000
F80000
800000
000000
000000
FFFFF8
FFFFF8
FFFFF8
ENDCHAR
STARTCHAR 25CA
ENCODING 9674
SWIDTH 600 0
DWIDTH 25 0
BBX 20 44 3 -10
BITMAP
004000
004000
00E000
00E000
00F000
01B000
01B800
031800
031C00
070C00
060E00
0E0600
0C0600
1C0300
180300
380180
300180
7001C0
6000C0
6000E0
C00060
C00070
C00070
C00060
6000E0
6000C0
3001C0
300180
380380
180300
1C0300
0C0600
0E0600
060E00
070C00
031C00
039800
01B800
01B000
00F000
00E000
00E000
004000
004000
ENDCHAR
STARTCHAR FB01
ENCODING 64257
SWIDTH 600 0
DWIDTH 25 0
BBX 21 32 1 0
BITMAP
00FE78
03FE78
07FE78
0F8078
0F0078
0F0000
0F0000
0F0000
0F0000
FFFFF8
FFFFF8
FFFFF8
0F0078
0F0078
0F0078
0F0078
0F0078
0F0078
0F0078
0F0078
0F0078
0F0078
0F0078
0F0078
0F0078
0F0078
0F0078
0F0078
0F0078
0F0078
0F0078
0F0078
ENDCHAR
STARTCHAR FB02
ENCODING 64258
SWIDTH 600 0
DWIDTH 25 0
BBX 21 32 1 0
BITMAP
00FFF8
03FFF8
07FFF8
0F8078
0F0078
0F0078
0F0078
0F0078
0F0078
FFFC78
FFFC78
FFFC78
0F0078
0F0078
0F0078
0F0078
0F0078
0F0078
0F0078
0F0078
0F0078
0F0078
0F0078
0F0078
0F0078
0F0078
0F0078
0F0078
0F0078
0F0078
0F0078
0F0078
ENDCHAR
ENDFONT
